<svg width="106" height="60" viewBox="0 0 106 60" fill="none" xmlns="http://www.w3.org/2000/svg">
<rect width="105.714" height="57" rx="28.5" fill="url(#paint0_linear_674_586)"/>
<path d="M20.1404 36.1088C19.931 33.8033 19.7526 28.7404 19.6886 26.5105C19.8146 25.9947 20.5282 25.6282 20.852 25.5022C25.6745 25.4711 35.746 25.3975 37.5493 25.3975C39.3429 25.3975 39.9596 26.4135 40.0449 26.939C39.9188 27.7146 39.6668 30.2723 39.6668 34.3171C39.6668 39.3684 34.8249 47.8906 29.9288 47.8906C25.0346 47.8906 20.4119 38.9903 20.1404 36.1088Z" fill="url(#paint1_linear_674_586)"/>
<path d="M26.0099 28.1548C24.3578 28.0682 22.7161 27.8937 21.0847 27.6312C21.9844 28.1432 25.0656 29.1495 30.2021 29.1495C36.6262 29.1495 39.2692 27.9124 39.2692 27.1581C39.2692 26.5396 38.672 26.1828 38.3675 26.0684L37.5395 26.2468C37.6034 26.3388 37.636 26.4489 37.6326 26.5609C36.7736 28.3119 32.6647 28.5523 30.1924 28.5523C28.232 28.5523 26.5858 28.2905 26.0002 28.1548H26.0099Z" fill="url(#paint2_linear_674_586)"/>
<path d="M30.1616 28.2594C24.8583 28.2594 23.6851 26.9797 23.7569 26.3301H36.545V26.5705C36.6284 27.127 35.4649 28.2575 30.1616 28.2575" fill="#26203A"/>
<path d="M30.1597 27.5983C26.6791 27.5983 25.9034 26.7606 25.9674 26.3398H34.3422V26.4872C34.3946 26.8556 33.6287 27.5983 30.148 27.5983H30.1597Z" fill="#4470D1"/>
<path d="M19.7197 26.718C19.7197 26.3496 20.2762 25.8687 20.5593 25.6709L21.3756 25.985L21.0305 27.5983C20.5985 27.5014 20.1746 27.3718 19.7623 27.2105C19.728 27.052 19.7136 26.8898 19.7197 26.7277V26.718Z" fill="#335CA7"/>
<path d="M20.5496 26.8538C20.5496 27.2533 20.9568 27.5674 21.1565 27.6721C22.2036 27.8505 24.6565 28.2073 26.0818 28.1859C23.3574 27.7981 22.6244 26.6967 22.6128 26.1945L21.2612 25.9851C21.0305 26.1015 20.5496 26.4563 20.5496 26.8538Z" fill="#496BAC"/>
<path d="M23.883 26.4445L22.5411 26.1943C22.5722 26.9797 23.7996 28.4902 28.3777 28.2168C24.9514 28.0617 23.9567 26.97 23.8733 26.4348L23.883 26.4445Z" fill="#9EA3B6"/>
<path d="M28.2013 28.2168H26.3979C33.5046 29.2542 38.232 27.5672 37.5282 26.2253L36.324 26.4348C36.3337 28.1121 30.916 28.3215 28.2013 28.2168Z" fill="url(#paint3_linear_674_586)"/>
<path d="M35.5578 26.5415H24.6875C23.5453 26.5415 20.8093 26.2042 19.0293 24.8836C16.7741 23.2161 17.478 18.8784 17.7301 17.9457C17.9783 17.0208 20.3052 9.10938 29.8221 9.10938C39.3506 9.10938 42.2961 17.7033 42.4008 19.0044V19.0451C42.6005 20.6933 42.3232 22.3609 41.6038 23.8559C40.8069 25.6399 37.2952 26.4039 35.554 26.5396" fill="url(#paint4_linear_674_586)"/>
<path d="M33.6188 13.3948H26.3977C24.5944 13.3948 20.5398 13.8156 20.5398 17.7247C20.5398 21.6339 23.8517 25.5857 29.7116 25.5857C35.5675 25.5857 38.9764 22.0953 38.9764 17.7247C38.9764 14.2247 35.4124 13.3754 33.6207 13.3967" fill="#FFFFBA"/>
<path d="M33.4928 13.5964H26.5006C24.7515 13.5964 20.8307 13.9939 20.8307 17.7886C20.8307 21.562 24.038 25.3762 29.6981 25.3762C35.3679 25.3762 38.6701 22.0216 38.6701 17.777C38.6701 14.3914 35.2108 13.5847 33.4812 13.5847L33.4928 13.5964Z" fill="url(#paint5_linear_674_586)"/>
<path d="M18.3894 16.5942C18.1683 16.6252 17.8018 17.715 17.6448 18.2482C17.4809 19.1687 17.3965 20.1016 17.3927 21.0366C17.414 21.9809 17.5711 22.2737 17.6448 22.295C18.0636 22.295 18.3894 21.0366 18.4844 20.1155C18.5891 19.2042 18.6725 16.5535 18.3894 16.5942Z" fill="#C9D3E8"/>
<path d="M18.4204 17.075C18.2226 17.1061 17.8969 18.0194 17.7611 18.4595C17.6875 18.8997 17.5304 19.9894 17.5517 20.7651C17.573 21.5407 17.6971 21.7928 17.7611 21.8122C18.1393 21.8122 18.4204 20.7651 18.4941 19.9991C18.5891 19.2448 18.6628 17.044 18.4204 17.075Z" fill="#CEC3F1"/>
<path d="M15.1823 16.4041C15.1823 20.3152 16.3883 21.5407 16.9953 21.6551C18.2014 21.6551 17.9493 19.5919 17.7922 15.6828C17.6352 11.7736 17.1329 9.64453 16.7975 9.64453C16.462 9.64453 15.1939 11.5196 15.1939 16.4041H15.1823Z" fill="url(#paint6_linear_674_586)"/>
<path d="M17.2688 12.8306C16.2004 13.009 15.4345 12.8306 15.3511 12.8306C15.2251 12.8616 15.2774 12.9973 15.3084 13.071C15.4131 13.102 15.7079 13.1563 16.2004 13.1563C16.819 13.1563 17.2068 13.1137 17.2688 13.071C17.3115 13.0303 17.2902 12.8926 17.2688 12.8306Z" fill="#FFFFBA"/>
<path d="M15.7368 20.1563C15.8726 19.7801 16.0083 19.245 16.0083 18.5857C16.0083 17.653 15.5177 16.9918 15.192 16.699C15.2113 18.2696 15.444 19.3923 15.7368 20.1563Z" fill="url(#paint7_linear_674_586)"/>
<path d="M41.3226 16.5942C41.5514 16.6252 41.9199 17.715 42.0769 18.2482C42.1816 18.795 42.3484 20.1039 42.329 21.0366C42.296 21.9809 42.1506 22.2737 42.0769 22.295C41.6562 22.295 41.3207 21.0366 41.2373 20.1155C41.1326 19.2042 41.0492 16.5535 41.3226 16.5942Z" fill="#C9D3E8"/>
<path d="M41.3013 17.075C41.5011 17.1061 41.8249 18.0194 41.9509 18.4595C42.0362 18.8997 42.1933 19.9894 42.1623 20.7651C42.1506 21.5407 42.0149 21.7928 41.9529 21.8122C41.5844 21.8122 41.3013 20.7651 41.218 19.9991C41.1346 19.2448 41.0609 17.044 41.3013 17.075Z" fill="#CEC3F1"/>
<path d="M44.5301 16.4041C44.5301 20.3152 43.324 21.5407 42.7268 21.6551C41.5207 21.6551 41.7631 19.5919 41.9318 15.6828C42.0869 11.7717 42.591 9.64453 42.9246 9.64453C43.262 9.64453 44.5301 11.5196 44.5301 16.4041Z" fill="url(#paint8_linear_674_586)"/>
<path d="M42.455 12.8306C43.5235 13.009 44.2894 12.8306 44.3728 12.8306C44.4988 12.8616 44.4465 12.9973 44.4038 13.071C44.1155 13.1389 43.8194 13.1676 43.5235 13.1563C42.9049 13.1563 42.5171 13.1137 42.455 13.071C42.4027 13.0303 42.4337 12.8926 42.455 12.8306Z" fill="#FFFFBA"/>
<path d="M43.9733 20.1563C43.7971 19.6516 43.7092 19.1203 43.7135 18.5857C43.7135 17.653 44.206 16.9918 44.5298 16.699C44.548 17.8749 44.3584 19.045 43.9733 20.1563Z" fill="url(#paint9_linear_674_586)"/>
<path d="M33.295 13.8155H26.6828C25.0249 13.8155 21.3038 14.2033 21.3038 17.841C21.3038 21.4864 24.3443 25.1571 29.7194 25.1571C35.0867 25.1571 38.2202 21.9189 38.2202 17.841C38.2202 14.5911 34.9413 13.8058 33.295 13.8155Z" fill="url(#paint10_linear_674_586)"/>
<path d="M37.3921 21.2363C35.0749 22.2521 32.5627 22.7459 30.0334 22.6829C26.576 22.6829 24.0281 22.1283 22.4672 21.6455C23.8187 23.6679 26.2929 25.1552 29.7193 25.1552C33.4713 25.1552 36.124 23.5845 37.3921 21.2383" fill="#483D6F"/>
<path d="M24.5945 16.8966H22.8145C22.9224 16.3812 23.2063 15.9195 23.6173 15.5905C24.0284 15.2614 24.5412 15.0857 25.0676 15.0933L24.5945 16.8966ZM27.2161 15.1049H25.2557L24.8485 16.8656H27.2142L27.2161 15.1049ZM22.7505 17.0963H24.5538L24.3851 17.8293H22.5624L22.7505 17.0963Z" fill="url(#paint11_linear_674_586)"/>
<path d="M26.295 20.9009C27.5495 20.9009 28.5675 19.8305 28.5675 18.512C28.5675 17.1915 27.5495 16.1211 26.293 16.1211C25.0384 16.1211 24.0185 17.1915 24.0185 18.512C24.0185 19.8305 25.0384 20.9009 26.293 20.9009" fill="url(#paint12_linear_674_586)"/>
<path d="M33.8707 20.9009C35.1272 20.9009 36.1452 19.8305 36.1452 18.512C36.1452 17.1915 35.1272 16.1211 33.8707 16.1211C32.6162 16.1211 31.5981 17.1915 31.5981 18.512C31.5981 19.8305 32.6162 20.9009 33.8707 20.9009Z" fill="url(#paint13_linear_674_586)"/>
<path d="M23.1597 14.1724C22.6362 13.5441 22.006 12.369 21.7345 11.7834L22.1223 11.479C22.163 11.8765 23.0026 13.3444 23.4312 14.025C23.3691 14.0773 23.2334 14.1724 23.1597 14.1724ZM36.3337 14.1297C36.9723 13.4523 37.521 12.709 37.98 11.8998L37.5611 11.5837C37.4874 11.9715 36.5644 13.3134 36.0506 13.9629C36.1348 14.0342 36.2305 14.0906 36.3337 14.1297Z" fill="#FFFFBA"/>
<path d="M19.6905 27.8076V28.05C19.5858 29.2658 19.355 31.7594 19.355 31.9592C19.355 32.1589 19.8262 33.4464 20.0686 34.0766C20.214 33.6675 20.5088 32.473 20.5088 30.9741C20.5088 29.4752 19.9639 28.2478 19.6905 27.8076Z" fill="#28233E"/>
<path d="M15.3276 37.2004C15.3276 41.5711 16.7335 42.9439 17.4238 43.0893C19.4268 43.0893 20.1501 38.1738 20.2548 35.7209C20.4952 33.0915 20.6116 27.8386 19.1864 27.8386C17.4024 27.8386 15.3276 31.7497 15.3276 37.2004Z" fill="url(#paint14_linear_674_586)"/>
<path d="M15.7271 38.0071C15.7271 39.5371 16.146 39.9346 16.367 39.9462C16.8906 39.9462 16.8789 38.583 16.8072 37.9024C16.8169 36.8941 16.7432 34.8833 16.367 34.8833C15.9055 34.8833 15.7271 36.101 15.7271 38.0071Z" fill="#829FD1"/>
<path d="M17.6565 38.488C16.272 38.488 15.5177 38.5927 15.2462 38.645L15.1823 38.3309C15.475 38.2785 16.2507 38.1738 17.6565 38.1738C18.8723 38.1738 19.5432 38.3425 19.9407 38.4356L20.1288 38.488L20.0454 38.8021L19.8573 38.7497C19.14 38.5576 18.3989 38.4694 17.6565 38.488Z" fill="#FFFFBA"/>
<path d="M44.1518 37.2004C44.1518 41.5711 42.7595 42.9439 42.0576 43.0893C40.0642 43.0893 39.3313 38.1738 39.2266 35.7209C38.9958 33.0915 38.8814 27.8386 40.3066 27.8386C42.0886 27.8386 44.1518 31.7497 44.1518 37.2004Z" fill="url(#paint15_linear_674_586)"/>
<path d="M43.7661 38.0071C43.7661 39.5371 43.3376 39.9346 43.1165 39.9462C42.6027 39.9462 42.6124 38.583 42.6764 37.9024C42.6764 36.8941 42.75 34.8833 43.1165 34.8833C43.5877 34.8833 43.7661 36.101 43.7661 38.0071Z" fill="#829FD1"/>
<path d="M41.825 38.488C43.2192 38.488 43.9735 38.5927 44.2353 38.645L44.309 38.3309C44.0162 38.2785 43.2289 38.1738 41.825 38.1738C40.6092 38.1738 39.948 38.3425 39.5408 38.4356L39.3624 38.488L39.4342 38.8021L39.6242 38.7497C40.043 38.645 40.6519 38.488 41.825 38.488Z" fill="#FFFFBA"/>
<path d="M26.1455 31.6122L24.7106 35.1548H25.5482L26.9735 31.7692C26.9914 31.7348 27.0185 31.706 27.0516 31.6859C27.0847 31.6657 27.1228 31.655 27.1615 31.6548C27.2005 31.6552 27.2387 31.6662 27.2718 31.6867C27.305 31.7072 27.3319 31.7364 27.3496 31.7712L28.6915 35.1548H29.5524L28.1563 31.6238C28.0741 31.4251 27.9348 31.2552 27.756 31.1358C27.5771 31.0163 27.3669 30.9527 27.1519 30.9529C26.9369 30.9483 26.7256 31.0089 26.5457 31.1265C26.3658 31.2442 26.2256 31.4134 26.1435 31.6122M30.1147 30.9529H30.9757V35.1548H30.1147V30.9529ZM31.856 35.1762V34.3908H34.371C34.6638 34.3908 34.9062 34.1581 34.9062 33.8867C34.9011 33.7523 34.8433 33.6252 34.7454 33.5331C34.6474 33.4409 34.5171 33.391 34.3826 33.3942H33.0195C32.3272 33.3942 31.761 32.8609 31.761 32.1997C31.761 31.5385 32.3272 31.0052 33.0195 31.0052H35.3153V31.7498H33.0602C32.7771 31.7498 32.5366 31.9689 32.5366 32.2424C32.5366 32.5041 32.7771 32.7232 33.0602 32.7232H34.3497C35.0729 32.7232 35.6488 33.2797 35.6488 33.9507C35.6443 34.1165 35.6071 34.2799 35.5393 34.4313C35.4715 34.5828 35.3745 34.7194 35.2537 34.8332C35.133 34.9471 34.991 35.036 34.8359 35.0948C34.6807 35.1537 34.5155 35.1813 34.3497 35.1762H31.856Z" fill="url(#paint16_linear_674_586)"/>
<path d="M57.2192 34.66C56.3659 34.66 55.5712 34.5213 54.8352 34.244C54.1099 33.956 53.4752 33.556 52.9312 33.044C52.3979 32.5213 51.9819 31.908 51.6832 31.204C51.3845 30.5 51.2352 29.732 51.2352 28.9C51.2352 28.068 51.3845 27.3 51.6832 26.596C51.9819 25.892 52.4032 25.284 52.9472 24.772C53.4912 24.2493 54.1259 23.8493 54.8512 23.572C55.5765 23.284 56.3712 23.14 57.2352 23.14C58.1525 23.14 58.9899 23.3 59.7472 23.62C60.5045 23.9293 61.1445 24.3933 61.6672 25.012L60.3232 26.276C59.9179 25.8387 59.4645 25.5133 58.9632 25.3C58.4619 25.076 57.9179 24.964 57.3312 24.964C56.7445 24.964 56.2059 25.06 55.7152 25.252C55.2352 25.444 54.8139 25.716 54.4512 26.068C54.0992 26.42 53.8219 26.836 53.6192 27.316C53.4272 27.796 53.3312 28.324 53.3312 28.9C53.3312 29.476 53.4272 30.004 53.6192 30.484C53.8219 30.964 54.0992 31.38 54.4512 31.732C54.8139 32.084 55.2352 32.356 55.7152 32.548C56.2059 32.74 56.7445 32.836 57.3312 32.836C57.9179 32.836 58.4619 32.7293 58.9632 32.516C59.4645 32.292 59.9179 31.956 60.3232 31.508L61.6672 32.788C61.1445 33.396 60.5045 33.86 59.7472 34.18C58.9899 34.5 58.1472 34.66 57.2192 34.66ZM68.3162 25.86C68.9989 25.86 69.6069 25.9933 70.1402 26.26C70.6842 26.5267 71.1109 26.9373 71.4202 27.492C71.7295 28.036 71.8842 28.74 71.8842 29.604V34.5H69.8842V29.86C69.8842 29.1027 69.7029 28.5373 69.3402 28.164C68.9882 27.7907 68.4922 27.604 67.8522 27.604C67.3829 27.604 66.9669 27.7 66.6042 27.892C66.2415 28.084 65.9589 28.372 65.7562 28.756C65.5642 29.1293 65.4682 29.604 65.4682 30.18V34.5H63.4682V22.628H65.4682V28.26L65.0362 27.556C65.3349 27.012 65.7669 26.596 66.3322 26.308C66.9082 26.0093 67.5695 25.86 68.3162 25.86ZM79.6853 34.5V32.772L79.5733 32.404V29.38C79.5733 28.7933 79.3973 28.34 79.0453 28.02C78.6933 27.6893 78.16 27.524 77.4453 27.524C76.9653 27.524 76.4906 27.5987 76.0213 27.748C75.5626 27.8973 75.1733 28.1053 74.8533 28.372L74.0693 26.916C74.528 26.564 75.072 26.3027 75.7013 26.132C76.3413 25.9507 77.0026 25.86 77.6853 25.86C78.9226 25.86 79.8773 26.1587 80.5493 26.756C81.232 27.3427 81.5733 28.2547 81.5733 29.492V34.5H79.6853ZM76.9973 34.612C76.3573 34.612 75.7973 34.5053 75.3173 34.292C74.8373 34.068 74.464 33.764 74.1973 33.38C73.9413 32.9853 73.8133 32.5427 73.8133 32.052C73.8133 31.572 73.9253 31.14 74.1493 30.756C74.384 30.372 74.7626 30.068 75.2853 29.844C75.808 29.62 76.5013 29.508 77.3653 29.508H79.8453V30.836H77.5093C76.8266 30.836 76.368 30.948 76.1333 31.172C75.8986 31.3853 75.7813 31.652 75.7813 31.972C75.7813 32.3347 75.9253 32.6227 76.2133 32.836C76.5013 33.0493 76.9013 33.156 77.4133 33.156C77.904 33.156 78.3413 33.044 78.7253 32.82C79.12 32.596 79.4026 32.2653 79.5733 31.828L79.9093 33.028C79.7173 33.5293 79.3706 33.9187 78.8693 34.196C78.3786 34.4733 77.7546 34.612 76.9973 34.612ZM87.3561 34.612C86.4174 34.612 85.6921 34.372 85.1801 33.892C84.6681 33.4013 84.4121 32.6813 84.4121 31.732V24.068H86.4121V31.684C86.4121 32.0893 86.5134 32.404 86.7161 32.628C86.9294 32.852 87.2227 32.964 87.5961 32.964C88.0441 32.964 88.4174 32.8467 88.7161 32.612L89.2761 34.036C89.0414 34.228 88.7534 34.372 88.4121 34.468C88.0707 34.564 87.7187 34.612 87.3561 34.612ZM83.0041 27.62V26.02H88.7001V27.62H83.0041Z" fill="white"/>
<circle cx="18.2187" cy="53" r="6.21094" fill="#00BB29" stroke="white" stroke-width="0.828125"/>
<defs>
<linearGradient id="paint0_linear_674_586" x1="33.7309" y1="4.20713e-07" x2="36.7686" y2="69.9759" gradientUnits="userSpaceOnUse">
<stop stop-color="#F3C53D"/>
<stop offset="0.45" stop-color="#F8AA02"/>
<stop offset="1" stop-color="#B88D0F"/>
</linearGradient>
<linearGradient id="paint1_linear_674_586" x1="40.0449" y1="28.2072" x2="22.6127" y2="41.7379" gradientUnits="userSpaceOnUse">
<stop stop-color="#89B9ED"/>
<stop offset="0.89" stop-color="#1B5CCF"/>
<stop offset="1" stop-color="#6095D0"/>
</linearGradient>
<linearGradient id="paint2_linear_674_586" x1="23.8304" y1="28.4573" x2="38.3888" y2="28.4573" gradientUnits="userSpaceOnUse">
<stop stop-color="#6192E0"/>
<stop offset="1" stop-color="#97C1EF"/>
</linearGradient>
<linearGradient id="paint3_linear_674_586" x1="27.416" y1="28.6783" x2="37.2354" y2="27.6719" gradientUnits="userSpaceOnUse">
<stop stop-color="#B9C5DE"/>
<stop offset="1" stop-color="#667AB0"/>
</linearGradient>
<linearGradient id="paint4_linear_674_586" x1="29.9404" y1="9.10938" x2="29.9404" y2="26.5396" gradientUnits="userSpaceOnUse">
<stop stop-color="#72CDFF"/>
<stop offset="0.84" stop-color="#3856DC"/>
<stop offset="0.98" stop-color="#4A6DD8"/>
</linearGradient>
<linearGradient id="paint5_linear_674_586" x1="29.7601" y1="13.5847" x2="29.7601" y2="25.3762" gradientUnits="userSpaceOnUse">
<stop stop-color="#8091BF"/>
<stop offset="1" stop-color="#D2DBED"/>
</linearGradient>
<linearGradient id="paint6_linear_674_586" x1="16.5551" y1="9.64453" x2="16.5551" y2="21.6551" gradientUnits="userSpaceOnUse">
<stop stop-color="#72CDFF"/>
<stop offset="1" stop-color="#252B8C"/>
</linearGradient>
<linearGradient id="paint7_linear_674_586" x1="15.6011" y1="16.699" x2="15.6011" y2="20.1563" gradientUnits="userSpaceOnUse">
<stop stop-color="#32469F"/>
<stop offset="1" stop-color="#5EA3E0"/>
</linearGradient>
<linearGradient id="paint8_linear_674_586" x1="43.1553" y1="9.64453" x2="43.1553" y2="21.6551" gradientUnits="userSpaceOnUse">
<stop stop-color="#72CDFF"/>
<stop offset="1" stop-color="#252B8C"/>
</linearGradient>
<linearGradient id="paint9_linear_674_586" x1="44.1226" y1="16.699" x2="44.1226" y2="20.1563" gradientUnits="userSpaceOnUse">
<stop stop-color="#32469F"/>
<stop offset="1" stop-color="#5EA3E0"/>
</linearGradient>
<linearGradient id="paint10_linear_674_586" x1="21.3038" y1="17.4939" x2="37.9177" y2="17.4939" gradientUnits="userSpaceOnUse">
<stop stop-color="#27213B"/>
<stop offset="0.61" stop-color="#4A3F73"/>
<stop offset="1" stop-color="#28223C"/>
</linearGradient>
<linearGradient id="paint11_linear_674_586" x1="24.8893" y1="15.0933" x2="24.5635" y2="18.4381" gradientUnits="userSpaceOnUse">
<stop stop-color="#9490A1"/>
<stop offset="1" stop-color="#9490A1" stop-opacity="0"/>
</linearGradient>
<linearGradient id="paint12_linear_674_586" x1="26.293" y1="16.1211" x2="26.293" y2="20.9009" gradientUnits="userSpaceOnUse">
<stop stop-color="#FFF962"/>
<stop offset="1" stop-color="#FCBE43"/>
</linearGradient>
<linearGradient id="paint13_linear_674_586" x1="33.8707" y1="16.1211" x2="33.8707" y2="20.9009" gradientUnits="userSpaceOnUse">
<stop stop-color="#FFF962"/>
<stop offset="1" stop-color="#FCBE43"/>
</linearGradient>
<linearGradient id="paint14_linear_674_586" x1="17.8639" y1="27.8386" x2="17.8639" y2="43.0893" gradientUnits="userSpaceOnUse">
<stop stop-color="#87B7FD"/>
<stop offset="1" stop-color="#325CA9"/>
</linearGradient>
<linearGradient id="paint15_linear_674_586" x1="41.6155" y1="27.8386" x2="41.6155" y2="43.0893" gradientUnits="userSpaceOnUse">
<stop stop-color="#87B7FD"/>
<stop offset="1" stop-color="#325CA9"/>
</linearGradient>
<linearGradient id="paint16_linear_674_586" x1="25.3699" y1="34.4955" x2="34.8441" y2="34.4955" gradientUnits="userSpaceOnUse">
<stop stop-color="#C6AD40"/>
<stop offset="1" stop-color="#FFE45B"/>
</linearGradient>
</defs>
</svg>
