<svg width="56" height="48" viewBox="0 0 56 48" fill="none" xmlns="http://www.w3.org/2000/svg">
<path fill-rule="evenodd" clip-rule="evenodd" d="M31.4185 4.36331C38.6699 5.09497 47.0073 3.01069 51.7742 8.59067C56.6639 14.3144 55.498 22.839 53.4091 30.1049C51.4952 36.7622 47.3019 42.4331 41.1616 45.5049C34.9387 48.618 27.908 48.513 21.3785 46.1288C13.691 43.3217 5.98019 39.2988 3.03292 31.5825C-0.437409 22.4967 -1.73838 10.5953 5.24773 3.89624C11.912 -2.49419 22.2843 3.44169 31.4185 4.36331Z" fill="white"/>
<path d="M18.5253 24.6843V20.554C18.5253 19.6544 19.0234 18.1463 20.7523 17.8197C22.2197 17.5444 23.6726 17.5444 23.6726 17.5444C23.6726 17.5444 24.6274 18.2086 23.8387 18.2086C23.05 18.2086 23.0707 19.2256 23.8387 19.2256C24.6066 19.2256 23.8387 20.2011 23.8387 20.2011L20.7461 23.7088L18.5253 24.6843Z" fill="#C3DAFF"/>
<path d="M19.4286 15.999H36.5714C36.7717 15.999 36.9717 16.0117 37.1704 16.0371C37.103 15.5644 36.9407 15.1103 36.6931 14.7022C36.4456 14.294 36.1179 13.9401 35.7299 13.662C35.3419 13.3839 34.9016 13.1872 34.4355 13.0839C33.9694 12.9805 33.4872 12.9726 33.018 13.0606L18.9196 15.4676H18.9036C18.0186 15.6368 17.2316 16.1375 16.7034 16.8674C17.4992 16.3013 18.4519 15.9978 19.4286 15.999ZM36.5714 17.2847H19.4286C18.5196 17.2857 17.6481 17.6473 17.0053 18.29C16.3625 18.9328 16.001 19.8043 16 20.7133V30.999C16.001 31.908 16.3625 32.7795 17.0053 33.4223C17.6481 34.0651 18.5196 34.4266 19.4286 34.4276H36.5714C37.4804 34.4266 38.3519 34.0651 38.9947 33.4223C39.6375 32.7795 39.999 31.908 40 30.999V20.7133C39.999 19.8043 39.6375 18.9328 38.9947 18.29C38.3519 17.6473 37.4804 17.2857 36.5714 17.2847ZM34.0268 27.5704C33.6877 27.5704 33.3563 27.4699 33.0744 27.2815C32.7925 27.0932 32.5727 26.8254 32.443 26.5122C32.3132 26.1989 32.2793 25.8543 32.3454 25.5217C32.4116 25.1892 32.5749 24.8837 32.8146 24.644C33.0543 24.4042 33.3598 24.241 33.6923 24.1748C34.0249 24.1087 34.3696 24.1426 34.6828 24.2724C34.9961 24.4021 35.2638 24.6218 35.4522 24.9038C35.6405 25.1857 35.7411 25.5171 35.7411 25.8562C35.7411 26.3108 35.5605 26.7469 35.239 27.0683C34.9175 27.3898 34.4814 27.5704 34.0268 27.5704Z" fill="#1D1D1D"/>
<path d="M23.0979 34.6164C21.7899 34.2871 20.71 33.5365 19.8582 32.3648C19.0064 31.193 18.5807 29.8922 18.5811 28.4622V25.0181L23.0979 23.3242L27.6148 25.0181V28.4622C27.6148 29.8925 27.1891 31.1936 26.3377 32.3653C25.4863 33.5371 24.4063 34.2875 23.0979 34.6164ZM23.0979 33.4308C24.0107 33.1485 24.773 32.5908 25.3846 31.7578C25.9963 30.9248 26.3539 29.9957 26.4574 28.9703H23.0979V24.524L19.7103 25.7944V28.7163C19.7103 28.7821 19.7197 28.8668 19.7385 28.9703H23.0979V33.4308Z" fill="white"/>
</svg>
