<svg width="33" height="32" viewBox="0 0 33 32" fill="none" xmlns="http://www.w3.org/2000/svg">
<path fill-rule="evenodd" clip-rule="evenodd" d="M29.1473 19.5333C30.3275 17.6811 30.9527 15.5296 30.9491 13.3333C30.9491 6.95112 25.7757 1.77779 19.3935 1.77779C17.1117 1.77779 14.9846 2.43912 13.1935 3.57956C12.0015 3.64682 10.8218 3.85508 9.67883 4.20001C10.9244 2.87223 12.4293 1.81434 14.1003 1.09189C15.7714 0.369435 17.573 -0.00219921 19.3935 9.79015e-06C26.7571 9.79015e-06 32.7268 5.96979 32.7268 13.3333C32.729 15.1539 32.3574 16.9555 31.6349 18.6265C30.9125 20.2976 29.8546 21.8025 28.5268 23.048C28.8655 21.9253 29.0788 20.7484 29.1473 19.5333Z" fill="#E8A000"/>
<path fill-rule="evenodd" clip-rule="evenodd" d="M30.8895 20.0916C30.2465 21.1844 29.451 22.1799 28.5268 23.048C28.8655 21.9253 29.0779 20.7485 29.1464 19.5333C30.3269 17.6812 30.9524 15.5297 30.9491 13.3333C30.9491 6.95113 25.7757 1.77779 19.3935 1.77779C17.1117 1.77779 14.9846 2.43913 13.1935 3.57957C12.0015 3.64682 10.8218 3.85509 9.67883 4.20002C10.547 3.27589 11.5425 2.48033 12.6353 1.83735C14.6829 0.630815 17.0169 -0.0037266 19.3935 1.64644e-05C26.7571 1.64644e-05 32.7268 5.96979 32.7268 13.3333C32.7268 13.4673 32.7248 13.6009 32.7206 13.7342C32.6578 15.9741 32.0278 18.1615 30.8895 20.0916Z" fill="#E8A000"/>
<path fill-rule="evenodd" clip-rule="evenodd" d="M27.3935 18.6667C27.3935 26.0303 21.4237 32 14.0601 32C6.69658 32 0.726807 26.0303 0.726807 18.6667C0.726807 11.3031 6.69658 5.33337 14.0601 5.33337C21.4237 5.33337 27.3935 11.3031 27.3935 18.6667ZM13.1712 14.2223C12.6998 14.2223 12.2476 14.4096 11.9142 14.743C11.5808 15.0764 11.3935 15.5285 11.3935 16C11.3935 16.4715 11.5808 16.9237 11.9142 17.2571C12.2476 17.5905 12.6998 17.7778 13.1712 17.7778V14.2223ZM14.949 12.4445V11.5556H13.1712V12.4445C12.2283 12.4445 11.3239 12.8191 10.6571 13.4859C9.9903 14.1527 9.61569 15.057 9.61569 16C9.61569 16.943 9.9903 17.8474 10.6571 18.5142C11.3239 19.181 12.2283 19.5556 13.1712 19.5556V23.1111C12.3979 23.1111 11.7392 22.6178 11.4939 21.9263C11.4575 21.8131 11.3988 21.7084 11.3212 21.6184C11.2437 21.5283 11.1488 21.4547 11.0423 21.402C10.9358 21.3492 10.8198 21.3183 10.7012 21.3112C10.5825 21.3041 10.4637 21.3208 10.3516 21.3604C10.2396 21.4 10.1366 21.4616 10.0488 21.5417C9.96094 21.6218 9.89007 21.7187 9.84036 21.8266C9.79064 21.9346 9.76307 22.0514 9.7593 22.1702C9.75552 22.289 9.7756 22.4074 9.81836 22.5183C10.0634 23.2116 10.5175 23.812 11.118 24.2365C11.7185 24.6611 12.4358 24.889 13.1712 24.8889V25.7778H14.949V24.8889C15.892 24.8889 16.7964 24.5143 17.4632 23.8475C18.13 23.1807 18.5046 22.2764 18.5046 21.3334C18.5046 20.3904 18.13 19.486 17.4632 18.8192C16.7964 18.1524 15.892 17.7778 14.949 17.7778V14.2223C15.7224 14.2223 16.381 14.7156 16.6264 15.4071C16.6628 15.5203 16.7215 15.625 16.799 15.715C16.8766 15.8051 16.9714 15.8787 17.0779 15.9314C17.1844 15.9842 17.3004 16.0151 17.4191 16.0222C17.5377 16.0294 17.6566 16.0126 17.7687 15.973C17.8807 15.9334 17.9837 15.8718 18.0715 15.7917C18.1593 15.7116 18.2302 15.6147 18.2799 15.5068C18.3296 15.3988 18.3572 15.282 18.361 15.1632C18.3648 15.0444 18.3447 14.926 18.3019 14.8151C18.0568 14.1218 17.6028 13.5214 17.0023 13.0969C16.4018 12.6723 15.6844 12.4444 14.949 12.4445ZM14.949 19.5556V23.1111C15.4205 23.1111 15.8727 22.9238 16.2061 22.5904C16.5395 22.257 16.7268 21.8049 16.7268 21.3334C16.7268 20.8619 16.5395 20.4097 16.2061 20.0763C15.8727 19.7429 15.4205 19.5556 14.949 19.5556Z" fill="#E8A000"/>
</svg>
