<svg width="56" height="48" viewBox="0 0 56 48" fill="none" xmlns="http://www.w3.org/2000/svg">
<path fill-rule="evenodd" clip-rule="evenodd" d="M31.4185 4.36331C38.67 5.09497 47.0074 3.01069 51.7743 8.59067C56.664 14.3144 55.498 22.839 53.4092 30.1049C51.4952 36.7622 47.302 42.4331 41.1617 45.5049C34.9388 48.618 27.9081 48.513 21.3786 46.1288C13.691 43.3217 5.98025 39.2988 3.03298 31.5825C-0.437348 22.4967 -1.73832 10.5953 5.24779 3.89624C11.9121 -2.49419 22.2843 3.44169 31.4185 4.36331Z" fill="white"/>
<g clip-path="url(#clip0_141_3955)">
<path d="M40 31.5V33H16V15H17.5V31.5H40ZM38.5 16.875V21.9727C38.5 22.1367 38.4238 22.252 38.2715 22.3184C38.1191 22.3848 37.9805 22.3555 37.8555 22.2305L36.4375 20.8125L29.0195 28.2305C28.9414 28.3086 28.8516 28.3477 28.75 28.3477C28.6484 28.3477 28.5586 28.3086 28.4805 28.2305L25.75 25.5L20.875 30.375L18.625 28.125L25.4805 21.2695C25.5586 21.1914 25.6484 21.1523 25.75 21.1523C25.8516 21.1523 25.9414 21.1914 26.0195 21.2695L28.75 24L34.1875 18.5625L32.7695 17.1445C32.6445 17.0195 32.6152 16.8809 32.6816 16.7285C32.748 16.5762 32.8633 16.5 33.0273 16.5H38.125C38.2344 16.5 38.3242 16.5352 38.3945 16.6055C38.4648 16.6758 38.5 16.7656 38.5 16.875Z" fill="#1D1D1D"/>
</g>
<defs>
<clipPath id="clip0_141_3955">
<rect width="24" height="18" fill="white" transform="translate(16 15)"/>
</clipPath>
</defs>
</svg>
