<svg width="90" height="48" viewBox="0 0 90 48" fill="none" xmlns="http://www.w3.org/2000/svg">
<path d="M72.4277 6.85052L66.8 25.1406C66.1893 27.1252 64.3558 28.4792 62.2794 28.4792H60.9102C59.9899 28.4792 59.1726 27.8903 58.8814 27.017L56.3095 19.303L56.3023 19.284L54.4169 25.1884C53.791 27.1488 51.9693 28.4792 49.9115 28.4792H48.1029C47.1823 28.4792 46.3653 27.8901 46.0742 27.017L42.2926 15.6719H27.3506L28.9976 10.731C29.2887 9.85746 30.1063 9.2683 31.0272 9.2683H43.1515C45.1867 9.2683 46.9937 10.5702 47.6379 12.5008L48.6962 15.6719L49.8915 19.258L52.6235 10.7529C52.9077 9.86825 53.7304 9.2683 54.6595 9.2683H55.9598C57.9955 9.2683 59.8028 10.571 60.4467 12.5024L62.4426 18.4898L67.9071 0.730286C71.0893 0.730029 73.3634 3.80916 72.4277 6.85052Z" fill="url(#paint0_linear_153_485)"/>
<path d="M28.6421 8.78612L25.1464 19.4508C24.6932 20.8336 25.7235 22.2555 27.1785 22.2555H37.658C38.5935 22.2555 39.4206 21.6474 39.6993 20.7542L40.5637 17.9863H44.0336L45.5303 22.476L44.0665 27.1581C43.7875 28.051 42.9604 28.6592 42.0246 28.6592H22.0927C18.9106 28.6592 16.6364 25.58 17.5724 22.5387L23.2001 4.24861C23.8106 2.26403 25.6444 0.909973 27.7207 0.909973H68.9537L68.0344 3.95185C67.4311 5.948 65.5917 7.31362 63.5064 7.31362H30.6742C29.75 7.31362 28.9301 7.90766 28.6421 8.78612Z" fill="url(#paint1_linear_153_485)"/>
<path d="M10.0534 37.2606L8.3275 44.2697H6.08861L5.41743 41.2158C5.40464 41.1583 5.38387 41.0608 5.3551 40.9234C5.32953 40.786 5.29917 40.6294 5.26401 40.4536C5.23205 40.2778 5.20169 40.1052 5.17292 39.9358C5.14736 39.7632 5.12818 39.6178 5.11539 39.4995C5.10261 39.6178 5.08183 39.7632 5.05307 39.9358C5.0243 40.1052 4.99234 40.2778 4.95719 40.4536C4.92522 40.6294 4.89326 40.786 4.8613 40.9234C4.83254 41.0608 4.81176 41.1583 4.79898 41.2158L4.123 44.2697H1.88411L0.14862 37.2606H1.9752L2.73748 40.7748C2.75666 40.8611 2.78222 40.9841 2.81419 41.1439C2.84934 41.3005 2.8845 41.4731 2.91966 41.6617C2.95801 41.8471 2.99317 42.0261 3.02513 42.1987C3.05709 42.3712 3.07946 42.5151 3.09225 42.6301C3.11782 42.432 3.15138 42.2066 3.19293 41.9542C3.23767 41.7017 3.28561 41.446 3.33675 41.1871C3.39109 40.925 3.44222 40.6821 3.49017 40.4584C3.53811 40.2346 3.57966 40.0525 3.61481 39.9118L4.23326 37.2606H5.98794L6.58721 39.9118C6.61917 40.0493 6.65912 40.2314 6.70706 40.4584C6.7582 40.6821 6.80934 40.925 6.86048 41.1871C6.91481 41.4492 6.96435 41.7081 7.0091 41.9637C7.05384 42.2162 7.0874 42.4384 7.10977 42.6301C7.12895 42.4703 7.16091 42.269 7.20566 42.0261C7.2504 41.78 7.29515 41.5419 7.3399 41.3117C7.38784 41.0784 7.42459 40.9026 7.45016 40.7844L8.22682 37.2606H10.0534ZM13.2943 38.7421C13.8216 38.7421 14.2771 38.8347 14.6606 39.0201C15.0441 39.2023 15.3398 39.4772 15.5475 39.8447C15.7553 40.2123 15.8592 40.6725 15.8592 41.2254V42.0596H12.508C12.524 42.3441 12.6295 42.5774 12.8244 42.7596C13.0226 42.9418 13.3134 43.0328 13.697 43.0328C14.0358 43.0328 14.3458 42.9993 14.6271 42.9322C14.9115 42.865 15.204 42.7612 15.5044 42.6205V43.9677C15.2423 44.1051 14.9563 44.2058 14.6462 44.2697C14.3362 44.3337 13.9447 44.3656 13.4717 44.3656C12.9251 44.3656 12.4361 44.2681 12.0046 44.0732C11.5732 43.8782 11.2328 43.5762 10.9835 43.1671C10.7374 42.758 10.6143 42.2322 10.6143 41.5898C10.6143 40.9378 10.7262 40.4024 10.9499 39.9837C11.1736 39.5619 11.4869 39.2502 11.8896 39.0489C12.2923 38.8443 12.7605 38.7421 13.2943 38.7421ZM13.3614 40.0173C13.1409 40.0173 12.9555 40.0876 12.8053 40.2282C12.6582 40.3657 12.5719 40.583 12.5464 40.8803H14.1572C14.154 40.7205 14.1221 40.575 14.0613 40.444C14.0006 40.3129 13.9111 40.2091 13.7929 40.1324C13.6778 40.0557 13.534 40.0173 13.3614 40.0173ZM18.7932 36.81V38.4975C18.7932 38.6893 18.7868 38.8731 18.774 39.0489C18.7612 39.2215 18.7453 39.3845 18.7261 39.5379H18.7932C18.9338 39.3174 19.1176 39.1304 19.3445 38.977C19.5715 38.8204 19.8687 38.7421 20.2362 38.7421C20.802 38.7421 21.2638 38.9818 21.6218 39.4612C21.9829 39.9406 22.1635 40.6342 22.1635 41.5419C22.1635 42.1587 22.0804 42.6781 21.9142 43.1C21.748 43.5187 21.5147 43.8351 21.2143 44.0492C20.917 44.2602 20.5718 44.3656 20.1787 44.3656C19.7952 44.3656 19.5027 44.3001 19.3014 44.1691C19.1032 44.0348 18.9338 43.891 18.7932 43.7376H18.6781L18.3809 44.2697H16.9187V36.81H18.7932ZM19.5507 40.2139C19.3781 40.2139 19.2359 40.2538 19.124 40.3337C19.0121 40.4136 18.929 40.5383 18.8747 40.7077C18.8204 40.8739 18.7932 41.0864 18.7932 41.3453V41.609C18.7932 42.0309 18.8491 42.3441 18.961 42.5486C19.0761 42.7532 19.279 42.8555 19.5699 42.8555C19.7904 42.8555 19.9598 42.742 20.078 42.5151C20.1963 42.2881 20.2554 41.9574 20.2554 41.5227C20.2554 41.088 20.1979 40.762 20.0828 40.5447C19.9678 40.3241 19.7904 40.2139 19.5507 40.2139ZM28.7124 40.1659H31.7375V43.9437C31.3763 44.0684 30.9624 44.1707 30.4958 44.2506C30.0292 44.3273 29.5402 44.3656 29.0288 44.3656C28.3544 44.3656 27.7631 44.2346 27.2549 43.9725C26.7468 43.7104 26.3504 43.3125 26.066 42.7788C25.7815 42.2418 25.6393 41.5642 25.6393 40.746C25.6393 40.0109 25.7799 39.3765 26.0612 38.8427C26.3424 38.3058 26.7563 37.8919 27.3029 37.601C27.8526 37.307 28.5254 37.16 29.3212 37.16C29.7591 37.16 30.1746 37.2015 30.5677 37.2846C30.9608 37.3677 31.3028 37.4732 31.5937 37.601L30.9944 39.0872C30.7419 38.9626 30.4798 38.8699 30.2082 38.8092C29.9365 38.7452 29.644 38.7133 29.3308 38.7133C28.9121 38.7133 28.5749 38.8076 28.3192 38.9961C28.0667 39.1847 27.883 39.4372 27.7679 39.7536C27.6529 40.0668 27.5953 40.4136 27.5953 40.794C27.5953 41.2286 27.656 41.5962 27.7775 41.8966C27.9021 42.1939 28.0827 42.4208 28.3192 42.5774C28.559 42.7308 28.8482 42.8075 29.187 42.8075C29.2989 42.8075 29.4347 42.7995 29.5945 42.7835C29.7575 42.7676 29.8805 42.7484 29.9636 42.726V41.6281H28.7124V40.1659ZM38.2432 41.5419C38.2432 41.9957 38.1809 42.3984 38.0562 42.75C37.9316 43.1016 37.751 43.3972 37.5145 43.6369C37.278 43.8766 36.9919 44.0588 36.6563 44.1834C36.3207 44.3049 35.942 44.3656 35.5201 44.3656C35.127 44.3656 34.7658 44.3049 34.4366 44.1834C34.1106 44.0588 33.8262 43.8766 33.5833 43.6369C33.3403 43.3972 33.1518 43.1016 33.0175 42.75C32.8865 42.3984 32.821 41.9957 32.821 41.5419C32.821 40.941 32.9296 40.4328 33.147 40.0173C33.3675 39.6018 33.6807 39.2854 34.0866 39.0681C34.4957 38.8507 34.9832 38.7421 35.5489 38.7421C36.0698 38.7421 36.5333 38.8507 36.9392 39.0681C37.3451 39.2854 37.6631 39.6018 37.8932 40.0173C38.1265 40.4328 38.2432 40.941 38.2432 41.5419ZM34.7243 41.5419C34.7243 41.8519 34.7514 42.114 34.8058 42.3281C34.8601 42.539 34.9464 42.7004 35.0647 42.8123C35.1861 42.921 35.3443 42.9753 35.5393 42.9753C35.7342 42.9753 35.8893 42.921 36.0043 42.8123C36.1194 42.7004 36.2025 42.539 36.2536 42.3281C36.3079 42.114 36.3351 41.8519 36.3351 41.5419C36.3351 41.2318 36.3079 40.9729 36.2536 40.7652C36.2025 40.5574 36.1178 40.4008 35.9995 40.2954C35.8845 40.1899 35.7279 40.1372 35.5297 40.1372C35.2452 40.1372 35.0391 40.2554 34.9112 40.4919C34.7866 40.7284 34.7243 41.0784 34.7243 41.5419ZM41.1916 44.2697H39.3171V36.81H41.1916V44.2697ZM44.1784 44.3656C43.6191 44.3656 43.1588 44.1275 42.7977 43.6513C42.4365 43.1751 42.2559 42.4783 42.2559 41.561C42.2559 40.6342 42.4413 39.9326 42.8121 39.4564C43.1828 38.9802 43.6622 38.7421 44.2503 38.7421C44.4932 38.7421 44.7026 38.7772 44.8784 38.8475C45.0541 38.9178 45.206 39.0137 45.3338 39.1352C45.4648 39.2534 45.5783 39.3877 45.6742 39.5379H45.7125C45.6902 39.4005 45.6694 39.2119 45.6502 38.9722C45.631 38.7293 45.6215 38.4928 45.6215 38.2626V36.81H47.5104V44.2697H46.0961L45.6934 43.5842H45.6215C45.5352 43.728 45.4265 43.859 45.2954 43.9773C45.1676 44.0956 45.011 44.1898 44.8256 44.2602C44.6434 44.3305 44.4277 44.3656 44.1784 44.3656ZM44.9455 42.8842C45.2459 42.8842 45.4569 42.7899 45.5783 42.6014C45.703 42.4096 45.7701 42.1188 45.7797 41.7288V41.5802C45.7797 41.1519 45.7189 40.8243 45.5975 40.5974C45.4792 40.3673 45.2555 40.2522 44.9263 40.2522C44.7026 40.2522 44.5172 40.3609 44.3702 40.5782C44.2231 40.7956 44.1496 41.1328 44.1496 41.5898C44.1496 42.0404 44.2231 42.3697 44.3702 42.5774C44.5204 42.7819 44.7122 42.8842 44.9455 42.8842ZM51.4704 44.2697V37.2606H53.3641V42.7404H56.0632V44.2697H51.4704ZM58.9589 38.8379V44.2697H57.0843V38.8379H58.9589ZM58.0288 36.6518C58.2973 36.6518 58.5306 36.7077 58.7287 36.8196C58.9301 36.9314 59.0308 37.1536 59.0308 37.486C59.0308 37.8088 58.9301 38.0277 58.7287 38.1428C58.5306 38.2546 58.2973 38.3106 58.0288 38.3106C57.7539 38.3106 57.519 38.2546 57.3241 38.1428C57.1323 38.0277 57.0364 37.8088 57.0364 37.486C57.0364 37.1536 57.1323 36.9314 57.3241 36.8196C57.519 36.7077 57.7539 36.6518 58.0288 36.6518ZM66.898 38.7421C67.5181 38.7421 67.9911 38.9003 68.3171 39.2167C68.6463 39.5331 68.8109 40.0397 68.8109 40.7364V44.2697H66.9364V41.3165C66.9364 40.9042 66.8805 40.6182 66.7686 40.4584C66.6599 40.2954 66.4969 40.2139 66.2796 40.2139C65.976 40.2139 65.765 40.3465 65.6468 40.6118C65.5317 40.8771 65.4742 41.2526 65.4742 41.7384V44.2697H63.5948V41.3165C63.5948 41.0544 63.5709 40.8435 63.5229 40.6837C63.4782 40.5207 63.4095 40.4024 63.3168 40.3289C63.2241 40.2522 63.1074 40.2139 62.9668 40.2139C62.7527 40.2139 62.5849 40.2794 62.4634 40.4104C62.3452 40.5383 62.2621 40.7268 62.2141 40.9761C62.1662 41.2254 62.1422 41.5307 62.1422 41.8918V44.2697H60.2677V38.8379H61.682L61.9552 39.5091H62.008C62.1039 39.3621 62.2269 39.2311 62.3771 39.116C62.5305 39.0009 62.7111 38.9098 62.9189 38.8427C63.1298 38.7756 63.3695 38.7421 63.638 38.7421C64.0375 38.7421 64.3667 38.8092 64.6256 38.9434C64.8845 39.0776 65.0954 39.263 65.2584 39.4995H65.316C65.4885 39.2566 65.7107 39.0697 65.9823 38.9386C66.254 38.8076 66.5592 38.7421 66.898 38.7421ZM71.9703 38.8379V44.2697H70.0958V38.8379H71.9703ZM71.0402 36.6518C71.3087 36.6518 71.542 36.7077 71.7402 36.8196C71.9415 36.9314 72.0422 37.1536 72.0422 37.486C72.0422 37.8088 71.9415 38.0277 71.7402 38.1428C71.542 38.2546 71.3087 38.3106 71.0402 38.3106C70.7653 38.3106 70.5304 38.2546 70.3355 38.1428C70.1437 38.0277 70.0478 37.8088 70.0478 37.486C70.0478 37.1536 70.1437 36.9314 70.3355 36.8196C70.5304 36.7077 70.7653 36.6518 71.0402 36.6518ZM75.9399 42.8842C76.1093 42.8842 76.2643 42.8666 76.4049 42.8315C76.5455 42.7963 76.6926 42.7516 76.846 42.6973V44.0636C76.6414 44.1531 76.4241 44.225 76.194 44.2793C75.967 44.3369 75.6762 44.3656 75.3214 44.3656C74.9698 44.3656 74.6598 44.3113 74.3913 44.2026C74.1229 44.0908 73.9135 43.899 73.7633 43.6273C73.6163 43.3525 73.5428 42.9705 73.5428 42.4815V40.2426H72.886V39.4804L73.7202 38.8907L74.2044 37.7497H75.4317V38.8379H76.7645V40.2426H75.4317V42.3569C75.4317 42.5327 75.4764 42.6653 75.5659 42.7548C75.6554 42.8411 75.7801 42.8842 75.9399 42.8842ZM80.2403 38.7421C80.7676 38.7421 81.2231 38.8347 81.6066 39.0201C81.9901 39.2023 82.2858 39.4772 82.4935 39.8447C82.7013 40.2123 82.8051 40.6725 82.8051 41.2254V42.0596H79.454C79.47 42.3441 79.5755 42.5774 79.7704 42.7596C79.9686 42.9418 80.2594 43.0328 80.643 43.0328C80.9818 43.0328 81.2918 42.9993 81.573 42.9322C81.8575 42.865 82.1499 42.7612 82.4504 42.6205V43.9677C82.1883 44.1051 81.9022 44.2058 81.5922 44.2697C81.2822 44.3337 80.8907 44.3656 80.4176 44.3656C79.8711 44.3656 79.3821 44.2681 78.9506 44.0732C78.5191 43.8782 78.1788 43.5762 77.9295 43.1671C77.6834 42.758 77.5603 42.2322 77.5603 41.5898C77.5603 40.9378 77.6722 40.4024 77.8959 39.9837C78.1196 39.5619 78.4328 39.2502 78.8356 39.0489C79.2383 38.8443 79.7065 38.7421 80.2403 38.7421ZM80.3074 40.0173C80.0868 40.0173 79.9015 40.0876 79.7512 40.2282C79.6042 40.3657 79.5179 40.583 79.4924 40.8803H81.1032C81.1 40.7205 81.068 40.575 81.0073 40.444C80.9466 40.3129 80.8571 40.2091 80.7388 40.1324C80.6238 40.0557 80.48 40.0173 80.3074 40.0173ZM85.5522 44.3656C84.9929 44.3656 84.5326 44.1275 84.1715 43.6513C83.8103 43.1751 83.6297 42.4783 83.6297 41.561C83.6297 40.6342 83.8151 39.9326 84.1859 39.4564C84.5566 38.9802 85.036 38.7421 85.6241 38.7421C85.867 38.7421 86.0764 38.7772 86.2522 38.8475C86.4279 38.9178 86.5798 39.0137 86.7076 39.1352C86.8386 39.2534 86.9521 39.3877 87.048 39.5379H87.0863C87.064 39.4005 87.0432 39.2119 87.024 38.9722C87.0048 38.7293 86.9953 38.4928 86.9953 38.2626V36.81H88.8842V44.2697H87.4699L87.0672 43.5842H86.9953C86.909 43.728 86.8003 43.859 86.6692 43.9773C86.5414 44.0956 86.3848 44.1898 86.1994 44.2602C86.0172 44.3305 85.8015 44.3656 85.5522 44.3656ZM86.3193 42.8842C86.6197 42.8842 86.8307 42.7899 86.9521 42.6014C87.0768 42.4096 87.1439 42.1188 87.1535 41.7288V41.5802C87.1535 41.1519 87.0927 40.8243 86.9713 40.5974C86.853 40.3673 86.6293 40.2522 86.3001 40.2522C86.0764 40.2522 85.891 40.3609 85.744 40.5782C85.597 40.7956 85.5234 41.1328 85.5234 41.5898C85.5234 42.0404 85.597 42.3697 85.744 42.5774C85.8942 42.7819 86.086 42.8842 86.3193 42.8842Z" fill="#1D1D1D"/>
<defs>
<linearGradient id="paint0_linear_153_485" x1="42.2485" y1="-5.05074" x2="42.8092" y2="38.3017" gradientUnits="userSpaceOnUse">
<stop stop-color="#FEB10A"/>
<stop offset="0.565583" stop-color="#E09B00"/>
<stop offset="0.906576" stop-color="#916E06"/>
</linearGradient>
<linearGradient id="paint1_linear_153_485" x1="34.3316" y1="-4.87111" x2="34.8239" y2="38.4834" gradientUnits="userSpaceOnUse">
<stop stop-color="#FEB10A"/>
<stop offset="0.565583" stop-color="#E09B00"/>
<stop offset="0.906576" stop-color="#916E06"/>
</linearGradient>
</defs>
</svg>
