<svg width="56" height="48" viewBox="0 0 56 48" fill="none" xmlns="http://www.w3.org/2000/svg">
<path fill-rule="evenodd" clip-rule="evenodd" d="M31.4185 3.78665C38.6699 4.51831 47.0073 2.43403 51.7742 8.01401C56.6639 13.7378 55.498 22.2624 53.4091 29.5282C51.4952 36.1856 47.3019 41.8565 41.1616 44.9283C34.9387 48.0414 27.908 47.9363 21.3785 45.5521C13.691 42.7451 5.98019 38.7221 3.03292 31.0058C-0.437409 21.92 -1.73838 10.0186 5.24773 3.31958C11.912 -3.07085 22.2843 2.86503 31.4185 3.78665Z" fill="white"/>
<g clip-path="url(#clip0_141_3964)">
<g clip-path="url(#clip1_141_3964)">
<path d="M32.6154 12.9235C28.6323 12.9235 25.4034 14.7041 25.4034 16.9038C25.4034 19.1035 28.6332 20.8851 32.6154 20.8851C36.5985 20.8851 39.8274 19.1035 39.8274 16.9038C39.8274 14.7041 36.5975 12.9235 32.6154 12.9235ZM39.8274 18.0863C39.8255 20.286 36.5985 22.0675 32.6154 22.0675C28.6434 22.0675 25.4218 20.3054 25.4034 18.1158V19.6731C25.4034 20.6128 26.0052 21.4731 26.9911 22.1543C27.988 22.4257 28.876 22.8023 29.6154 23.2786C30.532 23.5112 31.54 23.6534 32.6154 23.6534C36.5985 23.6534 39.8274 21.8728 39.8274 19.6731V18.0863ZM39.8274 20.8555C39.8274 23.0552 36.5985 24.8368 32.6154 24.8368C32.1308 24.8368 31.66 24.8008 31.2021 24.75C31.5634 25.2366 31.8099 25.7986 31.9231 26.394C32.1529 26.4069 32.38 26.4226 32.6154 26.4226C36.5985 26.4226 39.8274 24.642 39.8274 22.4423V20.8555ZM23.3846 23.0765C19.4015 23.0765 16.1726 24.858 16.1726 27.0577C16.1726 29.2574 19.4025 31.0389 23.3846 31.0389C27.3677 31.0389 30.5966 29.2574 30.5966 27.0577C30.5966 24.858 27.3668 23.0765 23.3846 23.0765ZM39.8274 23.6248C39.8255 25.8245 36.5985 27.606 32.6154 27.606C32.3837 27.606 32.1492 27.5894 31.9231 27.5765C31.9129 27.6457 31.9074 27.738 31.8945 27.8072C31.9406 27.9466 31.9803 28.0841 31.9803 28.2411V29.1641C32.1898 29.1743 32.4003 29.1918 32.6154 29.1918C36.5985 29.1918 39.8274 27.4112 39.8274 25.2115V23.6248ZM39.8274 26.394C39.8255 28.5937 36.5985 30.3752 32.6154 30.3752C32.3837 30.3752 32.1492 30.3586 31.9231 30.3457C31.9129 30.4149 31.9074 30.5072 31.8945 30.5765C31.9406 30.7149 31.9803 30.8534 31.9803 31.0103V31.9334C32.1898 31.9435 32.4003 31.9611 32.6154 31.9611C36.5985 31.9611 39.8274 30.1805 39.8274 27.9808V26.394ZM30.5966 28.2401C30.5948 30.4398 27.3677 32.2214 23.3846 32.2214C19.4126 32.2214 16.1911 30.4592 16.1726 28.2688V29.8269C16.1726 32.0266 19.4006 33.8081 23.3846 33.8081C27.3686 33.8081 30.5966 32.0266 30.5966 29.8269V28.2401ZM30.5966 31.0094C30.5948 33.2091 27.3677 34.9906 23.3846 34.9906C19.4126 34.9906 16.1911 33.2285 16.1726 31.038V32.5961C16.1726 34.7958 19.4006 36.5774 23.3846 36.5774C27.3686 36.5774 30.5966 34.7958 30.5966 32.5961V31.0094Z" fill="#1D1D1D"/>
</g>
<path fill-rule="evenodd" clip-rule="evenodd" d="M29.5 30.5C29.5 27.7385 31.7385 25.5 34.5 25.5C37.2615 25.5 39.5 27.7385 39.5 30.5C39.5 33.2615 37.2615 35.5 34.5 35.5C31.7385 35.5 29.5 33.2615 29.5 30.5ZM35 28C35 27.8674 34.9473 27.7402 34.8536 27.6464C34.7598 27.5527 34.6326 27.5 34.5 27.5C34.3674 27.5 34.2402 27.5527 34.1464 27.6464C34.0527 27.7402 34 27.8674 34 28V28.5H33.5C33.1685 28.5 32.8505 28.6317 32.6161 28.8661C32.3817 29.1005 32.25 29.4185 32.25 29.75C32.25 30.0815 32.3817 30.3995 32.6161 30.6339C32.8505 30.8683 33.1685 31 33.5 31H35.5C35.5663 31 35.6299 31.0263 35.6768 31.0732C35.7237 31.1201 35.75 31.1837 35.75 31.25C35.75 31.3163 35.7237 31.3799 35.6768 31.4268C35.6299 31.4737 35.5663 31.5 35.5 31.5H33C32.8674 31.5 32.7402 31.5527 32.6464 31.6464C32.5527 31.7402 32.5 31.8674 32.5 32C32.5 32.1326 32.5527 32.2598 32.6464 32.3536C32.7402 32.4473 32.8674 32.5 33 32.5H34V33C34 33.1326 34.0527 33.2598 34.1464 33.3536C34.2402 33.4473 34.3674 33.5 34.5 33.5C34.6326 33.5 34.7598 33.4473 34.8536 33.3536C34.9473 33.2598 35 33.1326 35 33V32.5H35.5C35.8315 32.5 36.1495 32.3683 36.3839 32.1339C36.6183 31.8995 36.75 31.5815 36.75 31.25C36.75 30.9185 36.6183 30.6005 36.3839 30.3661C36.1495 30.1317 35.8315 30 35.5 30H33.5C33.4337 30 33.3701 29.9737 33.3232 29.9268C33.2763 29.8799 33.25 29.8163 33.25 29.75C33.25 29.6837 33.2763 29.6201 33.3232 29.5732C33.3701 29.5263 33.4337 29.5 33.5 29.5H36C36.1326 29.5 36.2598 29.4473 36.3536 29.3536C36.4473 29.2598 36.5 29.1326 36.5 29C36.5 28.8674 36.4473 28.7402 36.3536 28.6464C36.2598 28.5527 36.1326 28.5 36 28.5H35V28Z" fill="#1D1D1D"/>
</g>
<defs>
<clipPath id="clip0_141_3964">
<rect width="24" height="24" fill="white" transform="translate(16 12)"/>
</clipPath>
<clipPath id="clip1_141_3964">
<rect width="24" height="24" fill="white" transform="translate(16 12.75)"/>
</clipPath>
</defs>
</svg>
