<svg width="33" height="32" viewBox="0 0 33 32" fill="none" xmlns="http://www.w3.org/2000/svg">
<g clip-path="url(#clip0_118_13207)">
<g clip-path="url(#clip1_118_13207)">
<path d="M22.8806 1.23133C17.5698 1.23133 13.2646 3.60549 13.2646 6.53841C13.2646 9.47133 17.5711 11.8467 22.8806 11.8467C28.1914 11.8467 32.4966 9.47133 32.4966 6.53841C32.4966 3.60549 28.1901 1.23133 22.8806 1.23133ZM32.4966 8.11503C32.4941 11.0479 28.1914 13.4233 22.8806 13.4233C17.5846 13.4233 13.2892 11.0738 13.2646 8.15441V10.2307C13.2646 11.4836 14.0671 12.6307 15.3815 13.539C16.7108 13.9009 17.8948 14.403 18.8806 15.0381C20.1028 15.3483 21.4468 15.5378 22.8806 15.5378C28.1914 15.5378 32.4966 13.1636 32.4966 10.2307V8.11503ZM32.4966 11.8073C32.4966 14.7403 28.1914 17.1156 22.8806 17.1156C22.2344 17.1156 21.6068 17.0676 20.9963 16.9999C21.478 17.6487 21.8066 18.3981 21.9575 19.1919C22.264 19.2092 22.5668 19.2301 22.8806 19.2301C28.1914 19.2301 32.4966 16.8559 32.4966 13.923V11.8073ZM10.5729 14.7686C5.26214 14.7686 0.956909 17.1439 0.956909 20.0769C0.956909 23.0098 5.26337 25.3852 10.5729 25.3852C15.8837 25.3852 20.1889 23.0098 20.1889 20.0769C20.1889 17.1439 15.8824 14.7686 10.5729 14.7686ZM32.4966 15.4996C32.4941 18.4326 28.1914 20.8079 22.8806 20.8079C22.5717 20.8079 22.2591 20.7858 21.9575 20.7686C21.944 20.8609 21.9366 20.9839 21.9194 21.0763C21.9809 21.2621 22.0338 21.4455 22.0338 21.6547V22.8855C22.3132 22.899 22.5938 22.9224 22.8806 22.9224C28.1914 22.9224 32.4966 20.5483 32.4966 17.6153V15.4996ZM32.4966 19.1919C32.4941 22.1249 28.1914 24.5003 22.8806 24.5003C22.5717 24.5003 22.2591 24.4781 21.9575 24.4609C21.944 24.5532 21.9366 24.6763 21.9194 24.7686C21.9809 24.9532 22.0338 25.1378 22.0338 25.347V26.5778C22.3132 26.5913 22.5938 26.6147 22.8806 26.6147C28.1914 26.6147 32.4966 24.2406 32.4966 21.3076V19.1919ZM20.1889 21.6535C20.1864 24.5864 15.8837 26.9618 10.5729 26.9618C5.27691 26.9618 0.981525 24.6123 0.956909 21.6916V23.7692C0.956909 26.7021 5.26091 29.0775 10.5729 29.0775C15.8849 29.0775 20.1889 26.7021 20.1889 23.7692V21.6535ZM20.1889 25.3458C20.1864 28.2787 15.8837 30.6541 10.5729 30.6541C5.27691 30.6541 0.981525 28.3046 0.956909 25.3839V27.4615C0.956909 30.3944 5.26091 32.7698 10.5729 32.7698C15.8849 32.7698 20.1889 30.3944 20.1889 27.4615V25.3458Z" fill="#E8A000"/>
</g>
<path fill-rule="evenodd" clip-rule="evenodd" d="M18.7268 24.6667C18.7268 20.9847 21.7115 18 25.3935 18C29.0755 18 32.0601 20.9847 32.0601 24.6667C32.0601 28.3487 29.0755 31.3333 25.3935 31.3333C21.7115 31.3333 18.7268 28.3487 18.7268 24.6667ZM26.0601 21.3333C26.0601 21.1565 25.9899 20.987 25.8649 20.8619C25.7399 20.7369 25.5703 20.6667 25.3935 20.6667C25.2167 20.6667 25.0471 20.7369 24.9221 20.8619C24.797 20.987 24.7268 21.1565 24.7268 21.3333V22H24.0601C23.6181 22 23.1942 22.1756 22.8816 22.4882C22.5691 22.8007 22.3935 23.2246 22.3935 23.6667C22.3935 24.1087 22.5691 24.5326 22.8816 24.8452C23.1942 25.1577 23.6181 25.3333 24.0601 25.3333H26.7268C26.8152 25.3333 26.9 25.3685 26.9625 25.431C27.025 25.4935 27.0601 25.5783 27.0601 25.6667C27.0601 25.7551 27.025 25.8399 26.9625 25.9024C26.9 25.9649 26.8152 26 26.7268 26H23.3935C23.2167 26 23.0471 26.0702 22.9221 26.1953C22.797 26.3203 22.7268 26.4899 22.7268 26.6667C22.7268 26.8435 22.797 27.013 22.9221 27.1381C23.0471 27.2631 23.2167 27.3333 23.3935 27.3333H24.7268V28C24.7268 28.1768 24.797 28.3464 24.9221 28.4714C25.0471 28.5964 25.2167 28.6667 25.3935 28.6667C25.5703 28.6667 25.7399 28.5964 25.8649 28.4714C25.9899 28.3464 26.0601 28.1768 26.0601 28V27.3333H26.7268C27.1688 27.3333 27.5928 27.1577 27.9053 26.8452C28.2179 26.5326 28.3935 26.1087 28.3935 25.6667C28.3935 25.2246 28.2179 24.8007 27.9053 24.4882C27.5928 24.1756 27.1688 24 26.7268 24H24.0601C23.9717 24 23.8869 23.9649 23.8244 23.9024C23.7619 23.8399 23.7268 23.7551 23.7268 23.6667C23.7268 23.5783 23.7619 23.4935 23.8244 23.431C23.8869 23.3685 23.9717 23.3333 24.0601 23.3333H27.3935C27.5703 23.3333 27.7399 23.2631 27.8649 23.1381C27.9899 23.013 28.0601 22.8435 28.0601 22.6667C28.0601 22.4899 27.9899 22.3203 27.8649 22.1953C27.7399 22.0702 27.5703 22 27.3935 22H26.0601V21.3333Z" fill="#E8A000"/>
</g>
<defs>
<clipPath id="clip0_118_13207">
<rect width="32" height="32" fill="white" transform="translate(0.726807)"/>
</clipPath>
<clipPath id="clip1_118_13207">
<rect width="32" height="32" fill="white" transform="translate(0.726807 1)"/>
</clipPath>
</defs>
</svg>
