<svg width="26" height="21" viewBox="0 0 26 21" fill="none" xmlns="http://www.w3.org/2000/svg">
<path d="M1 7.5C1 10.6826 2.26428 13.7348 4.51472 15.9853C6.76516 18.2357 9.8174 19.5 13 19.5C16.1826 19.5 19.2348 18.2357 21.4853 15.9853C23.7357 13.7348 25 10.6826 25 7.5" stroke="#A4A4A4" stroke-width="2" stroke-linecap="round" stroke-linejoin="round"/>
<path d="M25 7.5C21.8174 7.5 18.7652 8.76428 16.5147 11.0147C14.2643 13.2652 13 16.3174 13 19.5C13 17.9241 12.6896 16.3637 12.0866 14.9078C11.4835 13.4519 10.5996 12.129 9.48528 11.0147C8.37098 9.90042 7.04811 9.0165 5.5922 8.41345C4.13629 7.81039 2.57586 7.5 1 7.5" stroke="#A4A4A4" stroke-width="2" stroke-linecap="round" stroke-linejoin="round"/>
<path d="M16.5881 10.5C16.6715 8.83017 16.3942 7.16198 15.775 5.60894C15.1559 4.0559 14.2095 2.65447 13.0001 1.5C11.7908 2.65447 10.8444 4.0559 10.2252 5.60894C9.60607 7.16198 9.32875 8.83017 9.41213 10.5" stroke="#A4A4A4" stroke-width="2" stroke-linecap="round" stroke-linejoin="round"/>
</svg>
