<svg width="56" height="48" viewBox="0 0 56 48" fill="none" xmlns="http://www.w3.org/2000/svg">
<path fill-rule="evenodd" clip-rule="evenodd" d="M31.4185 4.36331C38.67 5.09497 47.0074 3.01069 51.7743 8.59067C56.664 14.3144 55.498 22.839 53.4092 30.1049C51.4952 36.7622 47.302 42.4331 41.1617 45.5049C34.9388 48.618 27.9081 48.513 21.3786 46.1288C13.691 43.3217 5.98025 39.2988 3.03298 31.5825C-0.437348 22.4967 -1.73832 10.5953 5.24779 3.89624C11.9121 -2.49419 22.2843 3.44169 31.4185 4.36331Z" fill="white"/>
<g clip-path="url(#clip0_141_3947)">
<path d="M32.2548 20.2228L36.0498 16.0276C36.7979 15.2795 36.2681 14 35.2098 14H17.1903C16.1321 14 15.6022 15.2795 16.3503 16.0276L23.2001 23.6V29.447C23.2001 29.9191 23.4224 30.3635 23.8001 30.647L26.7997 32.897C27.5819 33.4835 28.6173 33.1584 29.0204 32.3881C27.6551 31.0768 26.8001 29.2381 26.8001 27.2C26.8001 23.8329 29.1269 21.0061 32.2548 20.2228ZM34.0001 21.2C30.6862 21.2 28.0001 23.8861 28.0001 27.2C28.0001 30.5139 30.6862 33.2 34.0001 33.2C37.3139 33.2 40.0001 30.5139 40.0001 27.2C40.0001 23.8861 37.3139 21.2 34.0001 21.2ZM34.6001 30.1955V30.8C34.6001 30.9657 34.4658 31.1 34.3001 31.1H33.7001C33.5343 31.1 33.4001 30.9657 33.4001 30.8V30.1891C32.9767 30.1674 32.5649 30.0196 32.2237 29.7635C32.0774 29.6536 32.0699 29.4346 32.2023 29.3083L32.6429 28.8879C32.7468 28.7889 32.9013 28.7844 33.0228 28.8605C33.1679 28.9513 33.3326 29 33.5036 29H34.5577C34.8014 29 35.0002 28.778 35.0002 28.5054C35.0002 28.2823 34.8648 28.0857 34.6713 28.028L32.9838 27.5218C32.2867 27.3125 31.7996 26.6435 31.7996 25.8946C31.7996 24.9751 32.5139 24.2281 33.3997 24.2045V23.6C33.3997 23.4343 33.5339 23.3 33.6997 23.3H34.2997C34.4654 23.3 34.5997 23.4343 34.5997 23.6V24.2109C35.0231 24.2326 35.4348 24.38 35.7761 24.6365C35.9223 24.7464 35.9298 24.9654 35.7974 25.0918L35.3568 25.5121C35.2529 25.6111 35.0984 25.6156 34.9769 25.5395C34.8318 25.4484 34.6672 25.4 34.4962 25.4H33.4421C33.1983 25.4 32.9996 25.622 32.9996 25.8946C32.9996 26.1178 33.1349 26.3143 33.3284 26.372L35.0159 26.8783C35.7131 27.0875 36.2002 27.7565 36.2002 28.5054C36.2002 29.4253 35.4862 30.1719 34.6001 30.1955Z" fill="#1D1D1D"/>
</g>
<defs>
<clipPath id="clip0_141_3947">
<rect width="24" height="19.2" fill="white" transform="translate(16 14)"/>
</clipPath>
</defs>
</svg>
