<svg width="90" height="48" viewBox="0 0 90 48" fill="none" xmlns="http://www.w3.org/2000/svg">
<path d="M72.4277 6.85071L66.8 25.1408C66.1893 27.1254 64.3558 28.4794 62.2794 28.4794H60.9102C59.9899 28.4794 59.1726 27.8905 58.8814 27.0172L56.3095 19.3032L56.3023 19.2842L54.4169 25.1886C53.791 27.149 51.9693 28.4794 49.9115 28.4794H48.1029C47.1823 28.4794 46.3653 27.8903 46.0742 27.0172L42.2926 15.6721H27.3506L28.9976 10.7312C29.2887 9.85764 30.1063 9.26849 31.0272 9.26849H43.1515C45.1867 9.26849 46.9937 10.5704 47.6379 12.501L48.6962 15.6721L49.8915 19.2582L52.6235 10.7531C52.9077 9.86843 53.7304 9.26849 54.6595 9.26849H55.9598C57.9955 9.26849 59.8028 10.5712 60.4467 12.5026L62.4426 18.49L67.9071 0.730469C71.0893 0.730212 73.3634 3.80934 72.4277 6.85071Z" fill="url(#paint0_linear_153_485)"/>
<path d="M28.6421 8.78631L25.1464 19.451C24.6932 20.8338 25.7235 22.2557 27.1785 22.2557H37.658C38.5935 22.2557 39.4206 21.6475 39.6993 20.7544L40.5637 17.9865H44.0336L45.5303 22.4762L44.0665 27.1583C43.7875 28.0512 42.9604 28.6594 42.0246 28.6594H22.0927C18.9106 28.6594 16.6364 25.5802 17.5724 22.5389L23.2001 4.2488C23.8106 2.26422 25.6444 0.910156 27.7207 0.910156H68.9537L68.0344 3.95204C67.4311 5.94818 65.5917 7.3138 63.5064 7.3138H30.6742C29.75 7.3138 28.9301 7.90784 28.6421 8.78631Z" fill="url(#paint1_linear_153_485)"/>
<path d="M10.0534 37.2609L8.3275 44.27H6.08861L5.41743 41.2161C5.40464 41.1586 5.38387 41.0611 5.3551 40.9237C5.32953 40.7862 5.29917 40.6296 5.26401 40.4538C5.23205 40.2781 5.20169 40.1055 5.17292 39.9361C5.14736 39.7635 5.12818 39.6181 5.11539 39.4998C5.10261 39.6181 5.08183 39.7635 5.05307 39.9361C5.0243 40.1055 4.99234 40.2781 4.95719 40.4538C4.92522 40.6296 4.89326 40.7862 4.8613 40.9237C4.83254 41.0611 4.81176 41.1586 4.79898 41.2161L4.123 44.27H1.88411L0.14862 37.2609H1.9752L2.73748 40.7751C2.75666 40.8614 2.78222 40.9844 2.81419 41.1442C2.84934 41.3008 2.8845 41.4734 2.91966 41.662C2.95801 41.8474 2.99317 42.0263 3.02513 42.1989C3.05709 42.3715 3.07946 42.5153 3.09225 42.6304C3.11782 42.4322 3.15138 42.2069 3.19293 41.9544C3.23767 41.7019 3.28561 41.4462 3.33675 41.1874C3.39109 40.9253 3.44222 40.6824 3.49017 40.4586C3.53811 40.2349 3.57966 40.0527 3.61481 39.9121L4.23326 37.2609H5.98794L6.58721 39.9121C6.61917 40.0495 6.65912 40.2317 6.70706 40.4586C6.7582 40.6824 6.80934 40.9253 6.86048 41.1874C6.91481 41.4494 6.96435 41.7083 7.0091 41.964C7.05384 42.2165 7.0874 42.4386 7.10977 42.6304C7.12895 42.4706 7.16091 42.2692 7.20566 42.0263C7.2504 41.7802 7.29515 41.5421 7.3399 41.312C7.38784 41.0787 7.42459 40.9029 7.45016 40.7846L8.22682 37.2609H10.0534ZM13.2943 38.7423C13.8216 38.7423 14.2771 38.835 14.6606 39.0204C15.0441 39.2026 15.3398 39.4774 15.5475 39.845C15.7553 40.2125 15.8592 40.6728 15.8592 41.2257V42.0599H12.508C12.524 42.3444 12.6295 42.5777 12.8244 42.7599C13.0226 42.942 13.3134 43.0331 13.697 43.0331C14.0358 43.0331 14.3458 42.9996 14.6271 42.9324C14.9115 42.8653 15.204 42.7614 15.5044 42.6208V43.968C15.2423 44.1054 14.9563 44.2061 14.6462 44.27C14.3362 44.3339 13.9447 44.3659 13.4717 44.3659C12.9251 44.3659 12.4361 44.2684 12.0046 44.0735C11.5732 43.8785 11.2328 43.5765 10.9835 43.1674C10.7374 42.7583 10.6143 42.2325 10.6143 41.5901C10.6143 40.9381 10.7262 40.4027 10.9499 39.984C11.1736 39.5621 11.4869 39.2505 11.8896 39.0492C12.2923 38.8446 12.7605 38.7423 13.2943 38.7423ZM13.3614 40.0176C13.1409 40.0176 12.9555 40.0879 12.8053 40.2285C12.6582 40.366 12.5719 40.5833 12.5464 40.8805H14.1572C14.154 40.7207 14.1221 40.5753 14.0613 40.4443C14.0006 40.3132 13.9111 40.2093 13.7929 40.1326C13.6778 40.0559 13.534 40.0176 13.3614 40.0176ZM18.7932 36.8103V38.4978C18.7932 38.6896 18.7868 38.8734 18.774 39.0492C18.7612 39.2217 18.7453 39.3847 18.7261 39.5382H18.7932C18.9338 39.3176 19.1176 39.1307 19.3445 38.9772C19.5715 38.8206 19.8687 38.7423 20.2362 38.7423C20.802 38.7423 21.2638 38.982 21.6218 39.4615C21.9829 39.9409 22.1635 40.6344 22.1635 41.5421C22.1635 42.159 22.0804 42.6784 21.9142 43.1002C21.748 43.5189 21.5147 43.8353 21.2143 44.0495C20.917 44.2604 20.5718 44.3659 20.1787 44.3659C19.7952 44.3659 19.5027 44.3004 19.3014 44.1693C19.1032 44.0351 18.9338 43.8913 18.7932 43.7379H18.6781L18.3809 44.27H16.9187V36.8103H18.7932ZM19.5507 40.2141C19.3781 40.2141 19.2359 40.2541 19.124 40.334C19.0121 40.4139 18.929 40.5385 18.8747 40.7079C18.8204 40.8741 18.7932 41.0867 18.7932 41.3456V41.6092C18.7932 42.0311 18.8491 42.3444 18.961 42.5489C19.0761 42.7535 19.279 42.8557 19.5699 42.8557C19.7904 42.8557 19.9598 42.7423 20.078 42.5153C20.1963 42.2884 20.2554 41.9576 20.2554 41.523C20.2554 41.0883 20.1979 40.7623 20.0828 40.5449C19.9678 40.3244 19.7904 40.2141 19.5507 40.2141ZM28.7124 40.1662H31.7375V43.944C31.3763 44.0687 30.9624 44.1709 30.4958 44.2508C30.0292 44.3275 29.5402 44.3659 29.0288 44.3659C28.3544 44.3659 27.7631 44.2349 27.2549 43.9728C26.7468 43.7107 26.3504 43.3128 26.066 42.779C25.7815 42.2421 25.6393 41.5645 25.6393 40.7463C25.6393 40.0112 25.7799 39.3768 26.0612 38.843C26.3424 38.3061 26.7563 37.8922 27.3029 37.6013C27.8526 37.3073 28.5254 37.1602 29.3212 37.1602C29.7591 37.1602 30.1746 37.2018 30.5677 37.2849C30.9608 37.368 31.3028 37.4735 31.5937 37.6013L30.9944 39.0875C30.7419 38.9629 30.4798 38.8702 30.2082 38.8094C29.9365 38.7455 29.644 38.7136 29.3308 38.7136C28.9121 38.7136 28.5749 38.8078 28.3192 38.9964C28.0667 39.185 27.883 39.4375 27.7679 39.7539C27.6529 40.0671 27.5953 40.4139 27.5953 40.7942C27.5953 41.2289 27.656 41.5965 27.7775 41.8969C27.9021 42.1941 28.0827 42.4211 28.3192 42.5777C28.559 42.7311 28.8482 42.8078 29.187 42.8078C29.2989 42.8078 29.4347 42.7998 29.5945 42.7838C29.7575 42.7678 29.8805 42.7487 29.9636 42.7263V41.6284H28.7124V40.1662ZM38.2432 41.5421C38.2432 41.996 38.1809 42.3987 38.0562 42.7503C37.9316 43.1018 37.751 43.3975 37.5145 43.6372C37.278 43.8769 36.9919 44.0591 36.6563 44.1837C36.3207 44.3052 35.942 44.3659 35.5201 44.3659C35.127 44.3659 34.7658 44.3052 34.4366 44.1837C34.1106 44.0591 33.8262 43.8769 33.5833 43.6372C33.3403 43.3975 33.1518 43.1018 33.0175 42.7503C32.8865 42.3987 32.821 41.996 32.821 41.5421C32.821 40.9413 32.9296 40.4331 33.147 40.0176C33.3675 39.6021 33.6807 39.2857 34.0866 39.0683C34.4957 38.851 34.9832 38.7423 35.5489 38.7423C36.0698 38.7423 36.5333 38.851 36.9392 39.0683C37.3451 39.2857 37.6631 39.6021 37.8932 40.0176C38.1265 40.4331 38.2432 40.9413 38.2432 41.5421ZM34.7243 41.5421C34.7243 41.8522 34.7514 42.1142 34.8058 42.3284C34.8601 42.5393 34.9464 42.7007 35.0647 42.8126C35.1861 42.9213 35.3443 42.9756 35.5393 42.9756C35.7342 42.9756 35.8893 42.9213 36.0043 42.8126C36.1194 42.7007 36.2025 42.5393 36.2536 42.3284C36.3079 42.1142 36.3351 41.8522 36.3351 41.5421C36.3351 41.2321 36.3079 40.9732 36.2536 40.7655C36.2025 40.5577 36.1178 40.4011 35.9995 40.2956C35.8845 40.1902 35.7279 40.1374 35.5297 40.1374C35.2452 40.1374 35.0391 40.2557 34.9112 40.4922C34.7866 40.7287 34.7243 41.0787 34.7243 41.5421ZM41.1916 44.27H39.3171V36.8103H41.1916V44.27ZM44.1784 44.3659C43.6191 44.3659 43.1588 44.1278 42.7977 43.6516C42.4365 43.1753 42.2559 42.4786 42.2559 41.5613C42.2559 40.6344 42.4413 39.9329 42.8121 39.4567C43.1828 38.9804 43.6622 38.7423 44.2503 38.7423C44.4932 38.7423 44.7026 38.7775 44.8784 38.8478C45.0541 38.9181 45.206 39.014 45.3338 39.1354C45.4648 39.2537 45.5783 39.3879 45.6742 39.5382H45.7125C45.6902 39.4007 45.6694 39.2122 45.6502 38.9724C45.631 38.7295 45.6215 38.493 45.6215 38.2629V36.8103H47.5104V44.27H46.0961L45.6934 43.5845H45.6215C45.5352 43.7283 45.4265 43.8593 45.2954 43.9776C45.1676 44.0958 45.011 44.1901 44.8256 44.2604C44.6434 44.3307 44.4277 44.3659 44.1784 44.3659ZM44.9455 42.8845C45.2459 42.8845 45.4569 42.7902 45.5783 42.6016C45.703 42.4099 45.7701 42.119 45.7797 41.7291V41.5805C45.7797 41.1522 45.7189 40.8246 45.5975 40.5977C45.4792 40.3676 45.2555 40.2525 44.9263 40.2525C44.7026 40.2525 44.5172 40.3612 44.3702 40.5785C44.2231 40.7958 44.1496 41.133 44.1496 41.5901C44.1496 42.0407 44.2231 42.3699 44.3702 42.5777C44.5204 42.7822 44.7122 42.8845 44.9455 42.8845ZM51.4704 44.27V37.2609H53.3641V42.7407H56.0632V44.27H51.4704ZM58.9589 38.8382V44.27H57.0843V38.8382H58.9589ZM58.0288 36.6521C58.2973 36.6521 58.5306 36.708 58.7287 36.8199C58.9301 36.9317 59.0308 37.1539 59.0308 37.4862C59.0308 37.8091 58.9301 38.028 58.7287 38.1431C58.5306 38.2549 58.2973 38.3108 58.0288 38.3108C57.7539 38.3108 57.519 38.2549 57.3241 38.1431C57.1323 38.028 57.0364 37.8091 57.0364 37.4862C57.0364 37.1539 57.1323 36.9317 57.3241 36.8199C57.519 36.708 57.7539 36.6521 58.0288 36.6521ZM66.898 38.7423C67.5181 38.7423 67.9911 38.9005 68.3171 39.2169C68.6463 39.5334 68.8109 40.04 68.8109 40.7367V44.27H66.9364V41.3168C66.9364 40.9045 66.8805 40.6184 66.7686 40.4586C66.6599 40.2956 66.4969 40.2141 66.2796 40.2141C65.976 40.2141 65.765 40.3468 65.6468 40.6121C65.5317 40.8773 65.4742 41.2529 65.4742 41.7387V44.27H63.5948V41.3168C63.5948 41.0547 63.5709 40.8438 63.5229 40.684C63.4782 40.521 63.4095 40.4027 63.3168 40.3292C63.2241 40.2525 63.1074 40.2141 62.9668 40.2141C62.7527 40.2141 62.5849 40.2797 62.4634 40.4107C62.3452 40.5385 62.2621 40.7271 62.2141 40.9764C62.1662 41.2257 62.1422 41.5309 62.1422 41.8921V44.27H60.2677V38.8382H61.682L61.9552 39.5094H62.008C62.1039 39.3624 62.2269 39.2313 62.3771 39.1163C62.5305 39.0012 62.7111 38.9101 62.9189 38.843C63.1298 38.7759 63.3695 38.7423 63.638 38.7423C64.0375 38.7423 64.3667 38.8094 64.6256 38.9437C64.8845 39.0779 65.0954 39.2633 65.2584 39.4998H65.316C65.4885 39.2569 65.7107 39.0699 65.9823 38.9389C66.254 38.8078 66.5592 38.7423 66.898 38.7423ZM71.9703 38.8382V44.27H70.0958V38.8382H71.9703ZM71.0402 36.6521C71.3087 36.6521 71.542 36.708 71.7402 36.8199C71.9415 36.9317 72.0422 37.1539 72.0422 37.4862C72.0422 37.8091 71.9415 38.028 71.7402 38.1431C71.542 38.2549 71.3087 38.3108 71.0402 38.3108C70.7653 38.3108 70.5304 38.2549 70.3355 38.1431C70.1437 38.028 70.0478 37.8091 70.0478 37.4862C70.0478 37.1539 70.1437 36.9317 70.3355 36.8199C70.5304 36.708 70.7653 36.6521 71.0402 36.6521ZM75.9399 42.8845C76.1093 42.8845 76.2643 42.8669 76.4049 42.8318C76.5455 42.7966 76.6926 42.7519 76.846 42.6975V44.0639C76.6414 44.1534 76.4241 44.2253 76.194 44.2796C75.967 44.3371 75.6762 44.3659 75.3214 44.3659C74.9698 44.3659 74.6598 44.3116 74.3913 44.2029C74.1229 44.091 73.9135 43.8993 73.7633 43.6276C73.6163 43.3527 73.5428 42.9708 73.5428 42.4818V40.2429H72.886V39.4806L73.7202 38.8909L74.2044 37.7499H75.4317V38.8382H76.7645V40.2429H75.4317V42.3571C75.4317 42.5329 75.4764 42.6656 75.5659 42.7551C75.6554 42.8414 75.7801 42.8845 75.9399 42.8845ZM80.2403 38.7423C80.7676 38.7423 81.2231 38.835 81.6066 39.0204C81.9901 39.2026 82.2858 39.4774 82.4935 39.845C82.7013 40.2125 82.8051 40.6728 82.8051 41.2257V42.0599H79.454C79.47 42.3444 79.5755 42.5777 79.7704 42.7599C79.9686 42.942 80.2594 43.0331 80.643 43.0331C80.9818 43.0331 81.2918 42.9996 81.573 42.9324C81.8575 42.8653 82.1499 42.7614 82.4504 42.6208V43.968C82.1883 44.1054 81.9022 44.2061 81.5922 44.27C81.2822 44.3339 80.8907 44.3659 80.4176 44.3659C79.8711 44.3659 79.3821 44.2684 78.9506 44.0735C78.5191 43.8785 78.1788 43.5765 77.9295 43.1674C77.6834 42.7583 77.5603 42.2325 77.5603 41.5901C77.5603 40.9381 77.6722 40.4027 77.8959 39.984C78.1196 39.5621 78.4328 39.2505 78.8356 39.0492C79.2383 38.8446 79.7065 38.7423 80.2403 38.7423ZM80.3074 40.0176C80.0868 40.0176 79.9015 40.0879 79.7512 40.2285C79.6042 40.366 79.5179 40.5833 79.4924 40.8805H81.1032C81.1 40.7207 81.068 40.5753 81.0073 40.4443C80.9466 40.3132 80.8571 40.2093 80.7388 40.1326C80.6238 40.0559 80.48 40.0176 80.3074 40.0176ZM85.5522 44.3659C84.9929 44.3659 84.5326 44.1278 84.1715 43.6516C83.8103 43.1753 83.6297 42.4786 83.6297 41.5613C83.6297 40.6344 83.8151 39.9329 84.1859 39.4567C84.5566 38.9804 85.036 38.7423 85.6241 38.7423C85.867 38.7423 86.0764 38.7775 86.2522 38.8478C86.4279 38.9181 86.5798 39.014 86.7076 39.1354C86.8386 39.2537 86.9521 39.3879 87.048 39.5382H87.0863C87.064 39.4007 87.0432 39.2122 87.024 38.9724C87.0048 38.7295 86.9953 38.493 86.9953 38.2629V36.8103H88.8842V44.27H87.4699L87.0672 43.5845H86.9953C86.909 43.7283 86.8003 43.8593 86.6692 43.9776C86.5414 44.0958 86.3848 44.1901 86.1994 44.2604C86.0172 44.3307 85.8015 44.3659 85.5522 44.3659ZM86.3193 42.8845C86.6197 42.8845 86.8307 42.7902 86.9521 42.6016C87.0768 42.4099 87.1439 42.119 87.1535 41.7291V41.5805C87.1535 41.1522 87.0927 40.8246 86.9713 40.5977C86.853 40.3676 86.6293 40.2525 86.3001 40.2525C86.0764 40.2525 85.891 40.3612 85.744 40.5785C85.597 40.7958 85.5234 41.133 85.5234 41.5901C85.5234 42.0407 85.597 42.3699 85.744 42.5777C85.8942 42.7822 86.086 42.8845 86.3193 42.8845Z" fill="#1D1D1D"/>
<defs>
<linearGradient id="paint0_linear_153_485" x1="41.8015" y1="0.730469" x2="43.481" y2="34.7777" gradientUnits="userSpaceOnUse">
<stop stop-color="#F3C53D"/>
<stop offset="0.45" stop-color="#F8AA02"/>
<stop offset="1" stop-color="#B88D0F"/>
</linearGradient>
<linearGradient id="paint1_linear_153_485" x1="33.8224" y1="0.910156" x2="35.2976" y2="34.9767" gradientUnits="userSpaceOnUse">
<stop stop-color="#F3C53D"/>
<stop offset="0.45" stop-color="#F8AA02"/>
<stop offset="1" stop-color="#B88D0F"/>
</linearGradient>
</defs>
</svg>
