<svg width="114" height="60" viewBox="0 0 114 60" fill="none" xmlns="http://www.w3.org/2000/svg">
<path d="M93.8191 7.7523L86.6907 30.9197C85.9171 33.4335 83.5946 35.1487 80.9646 35.1487H79.2303C78.0645 35.1487 77.0293 34.4027 76.6605 33.2965L73.4027 23.5254L73.3936 23.5013L71.0054 30.9802C70.2126 33.4635 67.9052 35.1487 65.2986 35.1487H63.0077C61.8416 35.1487 60.8067 34.4024 60.438 33.2965L55.6479 18.9261H36.7215L38.8077 12.6676C39.1764 11.5611 40.212 10.8148 41.3784 10.8148H56.7359C59.3138 10.8148 61.6027 12.4639 62.4187 14.9094L63.7592 18.9261L65.2732 23.4685L68.7338 12.6953C69.0937 11.5748 70.1358 10.8148 71.3127 10.8148H72.9598C75.5383 10.8148 77.8276 12.4649 78.6432 14.9113L81.1713 22.4954L88.093 2.03666e-08C92.1238 -0.000325433 95.0044 3.89991 93.8191 7.7523Z" fill="url(#paint0_linear_158_136)"/>
<path d="M34.2025 9.97646L29.7748 23.4851C29.2007 25.2366 30.5057 27.0377 32.3488 27.0377H45.6227C46.8077 27.0377 47.8553 26.2674 48.2084 25.1361L49.3033 21.63H53.6985L55.5943 27.3169L53.7402 33.2477C53.3867 34.3786 52.3391 35.149 51.1538 35.149H25.9067C21.876 35.149 18.9954 31.2488 20.181 27.3964L27.3094 4.22895C28.0827 1.71514 30.4055 0 33.0355 0H85.2639L84.0995 3.85305C83.3353 6.3815 81.0054 8.11128 78.364 8.11128H36.7766C35.6059 8.11128 34.5674 8.86373 34.2025 9.97646Z" fill="url(#paint1_linear_158_136)"/>
<path d="M12.7343 46.3777L10.5482 55.2559H7.71224L6.86207 51.3876C6.84588 51.3147 6.81957 51.1912 6.78313 51.0172C6.75074 50.8431 6.71228 50.6447 6.66775 50.422C6.62727 50.1994 6.58881 49.9808 6.55237 49.7662C6.51998 49.5476 6.49569 49.3634 6.4795 49.2136C6.46331 49.3634 6.43699 49.5476 6.40055 49.7662C6.36412 49.9808 6.32363 50.1994 6.2791 50.422C6.23862 50.6447 6.19813 50.8431 6.15765 51.0172C6.12121 51.1912 6.0949 51.3147 6.07871 51.3876L5.22246 55.2559H2.38654L0.188252 46.3777H2.50192L3.46747 50.8289C3.49176 50.9382 3.52415 51.0941 3.56464 51.2965C3.60917 51.4949 3.6537 51.7135 3.69823 51.9523C3.74681 52.1872 3.79135 52.4139 3.83183 52.6325C3.87232 52.8511 3.90065 53.0333 3.91685 53.179C3.94924 52.928 3.99174 52.6426 4.04437 52.3228C4.10105 52.003 4.16178 51.6791 4.22655 51.3512C4.29538 51.0192 4.36015 50.7115 4.42088 50.4281C4.4816 50.1447 4.53423 49.914 4.57876 49.7358L5.36213 46.3777H7.58472L8.3438 49.7358C8.38428 49.9099 8.43489 50.1407 8.49561 50.4281C8.56039 50.7115 8.62516 51.0192 8.68994 51.3512C8.75876 51.6831 8.82151 52.011 8.87819 52.3349C8.93487 52.6547 8.97738 52.9361 9.00571 53.179C9.03 52.9766 9.07049 52.7215 9.12717 52.4139C9.18384 52.1021 9.24052 51.8005 9.2972 51.509C9.35793 51.2135 9.40448 50.9908 9.43687 50.8411L10.4206 46.3777H12.7343ZM16.8394 48.2541C17.5074 48.2541 18.0843 48.3715 18.5701 48.6063C19.0559 48.8371 19.4304 49.1853 19.6935 49.6508C19.9567 50.1164 20.0883 50.6994 20.0883 51.3997V52.4564H15.8435C15.8637 52.8167 15.9973 53.1122 16.2443 53.343C16.4953 53.5737 16.8637 53.6891 17.3495 53.6891C17.7786 53.6891 18.1713 53.6466 18.5276 53.5616C18.8879 53.4766 19.2583 53.345 19.6389 53.1669V54.8733C19.3069 55.0474 18.9446 55.1749 18.5519 55.2559C18.1592 55.3368 17.6633 55.3773 17.0641 55.3773C16.3718 55.3773 15.7524 55.2538 15.2059 55.0069C14.6593 54.7599 14.2282 54.3774 13.9124 53.8592C13.6007 53.341 13.4448 52.675 13.4448 51.8613C13.4448 51.0354 13.5865 50.3573 13.8699 49.8269C14.1533 49.2925 14.55 48.8978 15.0601 48.6428C15.5702 48.3837 16.1633 48.2541 16.8394 48.2541ZM16.9244 49.8694C16.6451 49.8694 16.4103 49.9585 16.22 50.1366C16.0338 50.3107 15.9245 50.586 15.8921 50.9625H17.9325C17.9284 50.7601 17.888 50.5759 17.811 50.4099C17.7341 50.2439 17.6208 50.1123 17.471 50.0152C17.3252 49.918 17.143 49.8694 16.9244 49.8694ZM23.8047 45.8068V47.9444C23.8047 48.1873 23.7966 48.4201 23.7804 48.6428C23.7642 48.8614 23.744 49.0678 23.7197 49.2622H23.8047C23.9828 48.9828 24.2156 48.746 24.5031 48.5517C24.7905 48.3533 25.167 48.2541 25.6326 48.2541C26.3492 48.2541 26.9341 48.5577 27.3876 49.165C27.845 49.7723 28.0738 50.6508 28.0738 51.8005C28.0738 52.5819 27.9685 53.2397 27.758 53.7741C27.5475 54.3045 27.2519 54.7053 26.8714 54.9765C26.4949 55.2437 26.0577 55.3773 25.5597 55.3773C25.0739 55.3773 24.7035 55.2943 24.4484 55.1283C24.1974 54.9583 23.9828 54.7761 23.8047 54.5818H23.659L23.2825 55.2559H21.4303V45.8068H23.8047ZM24.7642 50.1184C24.5456 50.1184 24.3654 50.169 24.2237 50.2702C24.082 50.3714 23.9768 50.5293 23.908 50.7439C23.8391 50.9544 23.8047 51.2236 23.8047 51.5516V51.8855C23.8047 52.4199 23.8756 52.8167 24.0173 53.0758C24.163 53.3349 24.4201 53.4644 24.7885 53.4644C25.0678 53.4644 25.2824 53.3207 25.4322 53.0333C25.582 52.7458 25.6569 52.3268 25.6569 51.7762C25.6569 51.2257 25.584 50.8127 25.4383 50.5374C25.2925 50.2581 25.0678 50.1184 24.7642 50.1184ZM36.369 50.0577H40.2008V54.8429C39.7434 55.0008 39.2191 55.1304 38.628 55.2316C38.0369 55.3287 37.4175 55.3773 36.7698 55.3773C35.9156 55.3773 35.1666 55.2113 34.5229 54.8794C33.8792 54.5474 33.3772 54.0434 33.0169 53.3673C32.6566 52.6871 32.4764 51.8289 32.4764 50.7925C32.4764 49.8613 32.6546 49.0577 33.0108 48.3816C33.3671 47.7015 33.8914 47.1772 34.5836 46.8088C35.28 46.4364 36.1322 46.2501 37.1402 46.2501C37.6949 46.2501 38.2211 46.3028 38.7191 46.408C39.2171 46.5133 39.6502 46.6469 40.0186 46.8088L39.2596 48.6913C38.9397 48.5335 38.6078 48.4161 38.2637 48.3391C37.9195 48.2582 37.5491 48.2177 37.1524 48.2177C36.622 48.2177 36.1949 48.3371 35.871 48.576C35.5512 48.8148 35.3184 49.1346 35.1727 49.5354C35.0269 49.9322 34.9541 50.3714 34.9541 50.8532C34.9541 51.4038 35.031 51.8694 35.1848 52.2499C35.3427 52.6264 35.5715 52.9138 35.871 53.1122C36.1747 53.3065 36.5411 53.4037 36.9702 53.4037C37.1119 53.4037 37.2839 53.3936 37.4864 53.3733C37.6928 53.3531 37.8487 53.3288 37.954 53.3005V51.9098H36.369V50.0577ZM48.4414 51.8005C48.4414 52.3754 48.3624 52.8855 48.2046 53.3308C48.0467 53.7762 47.8179 54.1506 47.5183 54.4543C47.2188 54.7579 46.8564 54.9887 46.4313 55.1466C46.0063 55.3004 45.5265 55.3773 44.9921 55.3773C44.4942 55.3773 44.0367 55.3004 43.6197 55.1466C43.2068 54.9887 42.8465 54.7579 42.5388 54.4543C42.2311 54.1506 41.9923 53.7762 41.8222 53.3308C41.6562 52.8855 41.5732 52.3754 41.5732 51.8005C41.5732 51.0394 41.7109 50.3957 41.9862 49.8694C42.2655 49.3431 42.6623 48.9423 43.1764 48.6671C43.6946 48.3918 44.312 48.2541 45.0286 48.2541C45.6885 48.2541 46.2755 48.3918 46.7896 48.6671C47.3038 48.9423 47.7066 49.3431 47.9981 49.8694C48.2936 50.3957 48.4414 51.0394 48.4414 51.8005ZM43.9841 51.8005C43.9841 52.1932 44.0185 52.5252 44.0873 52.7964C44.1561 53.0636 44.2654 53.2681 44.4152 53.4098C44.5691 53.5474 44.7695 53.6162 45.0164 53.6162C45.2634 53.6162 45.4597 53.5474 45.6055 53.4098C45.7512 53.2681 45.8565 53.0636 45.9212 52.7964C45.9901 52.5252 46.0245 52.1932 46.0245 51.8005C46.0245 51.4078 45.9901 51.0799 45.9212 50.8168C45.8565 50.5536 45.7492 50.3552 45.5994 50.2216C45.4537 50.088 45.2553 50.0213 45.0043 50.0213C44.644 50.0213 44.3828 50.171 44.2209 50.4706C44.063 50.7702 43.9841 51.2135 43.9841 51.8005ZM52.1761 55.2559H49.8017V45.8068H52.1761V55.2559ZM55.9593 55.3773C55.2508 55.3773 54.6679 55.0757 54.2104 54.4725C53.7529 53.8693 53.5242 52.9867 53.5242 51.8248C53.5242 50.6508 53.759 49.7622 54.2286 49.1589C54.6982 48.5557 55.3055 48.2541 56.0504 48.2541C56.3581 48.2541 56.6233 48.2986 56.8459 48.3877C57.0686 48.4768 57.2609 48.5982 57.4228 48.7521C57.5888 48.9019 57.7325 49.0719 57.854 49.2622H57.9026C57.8742 49.0881 57.8479 48.8492 57.8236 48.5456C57.7993 48.2379 57.7872 47.9383 57.7872 47.6469V45.8068H60.1798V55.2559H58.3884L57.8783 54.3875H57.7872C57.6779 54.5697 57.5402 54.7356 57.3742 54.8854C57.2123 55.0352 57.0139 55.1546 56.7791 55.2437C56.5484 55.3328 56.2751 55.3773 55.9593 55.3773ZM56.9309 53.5009C57.3115 53.5009 57.5787 53.3814 57.7325 53.1426C57.8904 52.8997 57.9754 52.5313 57.9876 52.0374V51.8491C57.9876 51.3066 57.9106 50.8917 57.7568 50.6042C57.607 50.3127 57.3236 50.167 56.9066 50.167C56.6233 50.167 56.3884 50.3046 56.2022 50.5799C56.016 50.8552 55.9229 51.2823 55.9229 51.8613C55.9229 52.4321 56.016 52.8491 56.2022 53.1122C56.3925 53.3713 56.6354 53.5009 56.9309 53.5009ZM65.1958 55.2559V46.3777H67.5945V53.3187H71.0134V55.2559H65.1958ZM74.6812 48.3756V55.2559H72.3068V48.3756H74.6812ZM73.5031 45.6064C73.8432 45.6064 74.1387 45.6773 74.3897 45.819C74.6448 45.9607 74.7723 46.242 74.7723 46.6631C74.7723 47.072 74.6448 47.3493 74.3897 47.495C74.1387 47.6367 73.8432 47.7076 73.5031 47.7076C73.155 47.7076 72.8574 47.6367 72.6105 47.495C72.3676 47.3493 72.2461 47.072 72.2461 46.6631C72.2461 46.242 72.3676 45.9607 72.6105 45.819C72.8574 45.6773 73.155 45.6064 73.5031 45.6064ZM84.7375 48.2541C85.5229 48.2541 86.1221 48.4545 86.535 48.8553C86.952 49.2561 87.1605 49.8978 87.1605 50.7803V55.2559H84.7861V51.5151C84.7861 50.9929 84.7152 50.6305 84.5736 50.4281C84.4359 50.2216 84.2294 50.1184 83.9541 50.1184C83.5695 50.1184 83.3023 50.2864 83.1526 50.6224C83.0068 50.9585 82.9339 51.4341 82.9339 52.0495V55.2559H80.5535V51.5151C80.5535 51.1831 80.5231 50.916 80.4624 50.7135C80.4057 50.5071 80.3187 50.3573 80.2013 50.2642C80.0839 50.167 79.9361 50.1184 79.758 50.1184C79.4867 50.1184 79.2742 50.2014 79.1203 50.3674C78.9705 50.5293 78.8653 50.7682 78.8046 51.084C78.7438 51.3997 78.7135 51.7864 78.7135 52.2438V55.2559H76.3391V48.3756H78.1305L78.4766 49.2257H78.5434C78.6649 49.0395 78.8207 48.8735 79.011 48.7278C79.2053 48.582 79.4341 48.4667 79.6972 48.3816C79.9644 48.2966 80.2681 48.2541 80.6081 48.2541C81.1142 48.2541 81.5312 48.3391 81.8591 48.5092C82.187 48.6792 82.4542 48.914 82.6607 49.2136H82.7335C82.9522 48.9059 83.2335 48.6691 83.5776 48.5031C83.9218 48.3371 84.3084 48.2541 84.7375 48.2541ZM91.1624 48.3756V55.2559H88.788V48.3756H91.1624ZM89.9843 45.6064C90.3243 45.6064 90.6199 45.6773 90.8709 45.819C91.1259 45.9607 91.2534 46.242 91.2534 46.6631C91.2534 47.072 91.1259 47.3493 90.8709 47.495C90.6199 47.6367 90.3243 47.7076 89.9843 47.7076C89.6361 47.7076 89.3385 47.6367 89.0916 47.495C88.8487 47.3493 88.7272 47.072 88.7272 46.6631C88.7272 46.242 88.8487 45.9607 89.0916 45.819C89.3385 45.6773 89.6361 45.6064 89.9843 45.6064ZM96.1905 53.5009C96.4051 53.5009 96.6014 53.4786 96.7795 53.4341C96.9577 53.3895 97.1439 53.3329 97.3382 53.264V54.9947C97.0791 55.1081 96.8038 55.1992 96.5123 55.268C96.2249 55.3409 95.8565 55.3773 95.4071 55.3773C94.9618 55.3773 94.5691 55.3085 94.229 55.1708C93.889 55.0291 93.6238 54.7862 93.4335 54.4421C93.2473 54.094 93.1542 53.6102 93.1542 52.9908V50.1548H92.3222V49.1893L93.3789 48.4424L93.9922 46.9971H95.5468V48.3756H97.235V50.1548H95.5468V52.8329C95.5468 53.0555 95.6035 53.2236 95.7168 53.3369C95.8302 53.4462 95.9881 53.5009 96.1905 53.5009ZM101.638 48.2541C102.306 48.2541 102.883 48.3715 103.368 48.6063C103.854 48.8371 104.229 49.1853 104.492 49.6508C104.755 50.1164 104.887 50.6994 104.887 51.3997V52.4564H100.642C100.662 52.8167 100.796 53.1122 101.043 53.343C101.294 53.5737 101.662 53.6891 102.148 53.6891C102.577 53.6891 102.97 53.6466 103.326 53.5616C103.686 53.4766 104.057 53.345 104.437 53.1669V54.8733C104.105 55.0474 103.743 55.1749 103.35 55.2559C102.957 55.3368 102.462 55.3773 101.862 55.3773C101.17 55.3773 100.551 55.2538 100.004 55.0069C99.4576 54.7599 99.0264 54.3774 98.7106 53.8592C98.3989 53.341 98.243 52.675 98.243 51.8613C98.243 51.0354 98.3847 50.3573 98.6681 49.8269C98.9515 49.2925 99.3483 48.8978 99.8584 48.6428C100.368 48.3837 100.962 48.2541 101.638 48.2541ZM101.723 49.8694C101.443 49.8694 101.209 49.9585 101.018 50.1366C100.832 50.3107 100.723 50.586 100.69 50.9625H102.731C102.727 50.7601 102.686 50.5759 102.609 50.4099C102.532 50.2439 102.419 50.1123 102.269 50.0152C102.123 49.918 101.941 49.8694 101.723 49.8694ZM108.366 55.3773C107.658 55.3773 107.075 55.0757 106.617 54.4725C106.16 53.8693 105.931 52.9867 105.931 51.8248C105.931 50.6508 106.166 49.7622 106.635 49.1589C107.105 48.5557 107.712 48.2541 108.457 48.2541C108.765 48.2541 109.03 48.2986 109.253 48.3877C109.475 48.4768 109.668 48.5982 109.83 48.7521C109.996 48.9019 110.139 49.0719 110.261 49.2622H110.309C110.281 49.0881 110.255 48.8492 110.23 48.5456C110.206 48.2379 110.194 47.9383 110.194 47.6469V45.8068H112.587V55.2559H110.795L110.285 54.3875H110.194C110.085 54.5697 109.947 54.7356 109.781 54.8854C109.619 55.0352 109.421 55.1546 109.186 55.2437C108.955 55.3328 108.682 55.3773 108.366 55.3773ZM109.338 53.5009C109.718 53.5009 109.985 53.3814 110.139 53.1426C110.297 52.8997 110.382 52.5313 110.394 52.0374V51.8491C110.394 51.3066 110.317 50.8917 110.164 50.6042C110.014 50.3127 109.73 50.167 109.313 50.167C109.03 50.167 108.795 50.3046 108.609 50.5799C108.423 50.8552 108.33 51.2823 108.33 51.8613C108.33 52.4321 108.423 52.8491 108.609 53.1122C108.799 53.3713 109.042 53.5009 109.338 53.5009Z" fill="white"/>
<defs>
<linearGradient id="paint0_linear_158_136" x1="55.5921" y1="-7.32264" x2="56.3024" y2="47.5904" gradientUnits="userSpaceOnUse">
<stop stop-color="#DC9D14"/>
<stop offset="0.481779" stop-color="#D69402"/>
<stop offset="0.906576" stop-color="#916E06"/>
</linearGradient>
<linearGradient id="paint1_linear_158_136" x1="41.4093" y1="-7.32271" x2="42.0328" y2="47.593" gradientUnits="userSpaceOnUse">
<stop stop-color="#DC9D14"/>
<stop offset="0.481779" stop-color="#D69402"/>
<stop offset="0.906576" stop-color="#916E06"/>
</linearGradient>
</defs>
</svg>
