<svg width="33" height="29" viewBox="0 0 33 29" fill="none" xmlns="http://www.w3.org/2000/svg">
<path fill-rule="evenodd" clip-rule="evenodd" d="M13.0602 7.99992C13.0602 4.31792 16.0448 1.33325 19.7268 1.33325C23.4088 1.33325 26.3935 4.31792 26.3935 7.99992C26.3935 11.6819 23.4088 14.6666 19.7268 14.6666C16.0448 14.6666 13.0602 11.6819 13.0602 7.99992ZM20.3935 4.66658C20.3935 4.48977 20.3233 4.3202 20.1983 4.19518C20.0732 4.07016 19.9037 3.99992 19.7268 3.99992C19.55 3.99992 19.3805 4.07016 19.2554 4.19518C19.1304 4.3202 19.0602 4.48977 19.0602 4.66658V5.33325H18.3935C17.9515 5.33325 17.5276 5.50885 17.215 5.82141C16.9024 6.13397 16.7268 6.55789 16.7268 6.99992C16.7268 7.44195 16.9024 7.86587 17.215 8.17843C17.5276 8.49099 17.9515 8.66658 18.3935 8.66658H21.0602C21.1486 8.66658 21.2334 8.7017 21.2959 8.76422C21.3584 8.82673 21.3935 8.91151 21.3935 8.99992C21.3935 9.08832 21.3584 9.17311 21.2959 9.23562C21.2334 9.29813 21.1486 9.33325 21.0602 9.33325H17.7268C17.55 9.33325 17.3805 9.40349 17.2554 9.52851C17.1304 9.65354 17.0602 9.82311 17.0602 9.99992C17.0602 10.1767 17.1304 10.3463 17.2554 10.4713C17.3805 10.5963 17.55 10.6666 17.7268 10.6666H19.0602V11.3333C19.0602 11.5101 19.1304 11.6796 19.2554 11.8047C19.3805 11.9297 19.55 11.9999 19.7268 11.9999C19.9037 11.9999 20.0732 11.9297 20.1983 11.8047C20.3233 11.6796 20.3935 11.5101 20.3935 11.3333V10.6666H21.0602C21.5022 10.6666 21.9261 10.491 22.2387 10.1784C22.5513 9.86587 22.7268 9.44195 22.7268 8.99992C22.7268 8.55789 22.5513 8.13397 22.2387 7.82141C21.9261 7.50885 21.5022 7.33325 21.0602 7.33325H18.3935C18.3051 7.33325 18.2203 7.29813 18.1578 7.23562C18.0953 7.17311 18.0602 7.08832 18.0602 6.99992C18.0602 6.91151 18.0953 6.82673 18.1578 6.76422C18.2203 6.7017 18.3051 6.66658 18.3935 6.66658H21.7268C21.9037 6.66658 22.0732 6.59635 22.1983 6.47132C22.3233 6.3463 22.3935 6.17673 22.3935 5.99992C22.3935 5.82311 22.3233 5.65354 22.1983 5.52851C22.0732 5.40349 21.9037 5.33325 21.7268 5.33325H20.3935V4.66658Z" fill="#E8A000"/>
<path d="M32.1306 18.45C31.4751 17.8556 30.4529 17.8945 29.7641 18.45L24.631 22.5553C24.0033 23.0608 23.22 23.333 22.4089 23.333H15.8371C15.3482 23.333 14.9482 22.9331 14.9482 22.4442C14.9482 21.9553 15.3482 21.5554 15.8371 21.5554H20.1868C21.0701 21.5554 21.8923 20.9498 22.0367 20.0777C22.2201 18.9666 21.3646 18 20.2813 18H11.3929C9.89297 18 8.44305 18.5166 7.27645 19.461L4.69325 21.5554H1.61565C1.12678 21.5554 0.726807 21.9553 0.726807 22.4442V27.7772C0.726807 28.2661 1.12678 28.6661 1.61565 28.6661H21.4368C22.2423 28.6661 23.0256 28.3939 23.6589 27.8883L32.0584 21.1665C32.9028 20.4943 32.9695 19.2055 32.1306 18.45Z" fill="#E8A000"/>
</svg>
