<svg width="56" height="48" viewBox="0 0 56 48" fill="none" xmlns="http://www.w3.org/2000/svg">
<path fill-rule="evenodd" clip-rule="evenodd" d="M31.4185 3.78665C38.67 4.51831 47.0074 2.43403 51.7743 8.01401C56.664 13.7378 55.498 22.2624 53.4092 29.5282C51.4952 36.1856 47.302 41.8565 41.1617 44.9283C34.9388 48.0414 27.9081 47.9363 21.3786 45.5521C13.691 42.7451 5.98025 38.7221 3.03298 31.0058C-0.437348 21.92 -1.73832 10.0186 5.24779 3.31958C11.9121 -3.07085 22.2843 2.86503 31.4185 3.78665Z" fill="white"/>
<path fill-rule="evenodd" clip-rule="evenodd" d="M25.25 19C25.25 16.2385 27.4885 14 30.25 14C33.0115 14 35.25 16.2385 35.25 19C35.25 21.7615 33.0115 24 30.25 24C27.4885 24 25.25 21.7615 25.25 19ZM30.75 16.5C30.75 16.3674 30.6973 16.2402 30.6036 16.1464C30.5098 16.0527 30.3826 16 30.25 16C30.1174 16 29.9902 16.0527 29.8964 16.1464C29.8027 16.2402 29.75 16.3674 29.75 16.5V17H29.25C28.9185 17 28.6005 17.1317 28.3661 17.3661C28.1317 17.6005 28 17.9185 28 18.25C28 18.5815 28.1317 18.8995 28.3661 19.1339C28.6005 19.3683 28.9185 19.5 29.25 19.5H31.25C31.3163 19.5 31.3799 19.5263 31.4268 19.5732C31.4737 19.6201 31.5 19.6837 31.5 19.75C31.5 19.8163 31.4737 19.8799 31.4268 19.9268C31.3799 19.9737 31.3163 20 31.25 20H28.75C28.6174 20 28.4902 20.0527 28.3964 20.1464C28.3027 20.2402 28.25 20.3674 28.25 20.5C28.25 20.6326 28.3027 20.7598 28.3964 20.8536C28.4902 20.9473 28.6174 21 28.75 21H29.75V21.5C29.75 21.6326 29.8027 21.7598 29.8964 21.8536C29.9902 21.9473 30.1174 22 30.25 22C30.3826 22 30.5098 21.9473 30.6036 21.8536C30.6973 21.7598 30.75 21.6326 30.75 21.5V21H31.25C31.5815 21 31.8995 20.8683 32.1339 20.6339C32.3683 20.3995 32.5 20.0815 32.5 19.75C32.5 19.4185 32.3683 19.1005 32.1339 18.8661C31.8995 18.6317 31.5815 18.5 31.25 18.5H29.25C29.1837 18.5 29.1201 18.4737 29.0732 18.4268C29.0263 18.3799 29 18.3163 29 18.25C29 18.1837 29.0263 18.1201 29.0732 18.0732C29.1201 18.0263 29.1837 18 29.25 18H31.75C31.8826 18 32.0098 17.9473 32.1036 17.8536C32.1973 17.7598 32.25 17.6326 32.25 17.5C32.25 17.3674 32.1973 17.2402 32.1036 17.1464C32.0098 17.0527 31.8826 17 31.75 17H30.75V16.5Z" fill="#1D1D1D"/>
<path d="M39.5529 26.8375C39.0612 26.3917 38.2946 26.4208 37.778 26.8375L33.9282 29.9165C33.4574 30.2956 32.8699 30.4998 32.2616 30.4998H27.3327C26.9661 30.4998 26.6661 30.1998 26.6661 29.8331C26.6661 29.4665 26.9661 29.1665 27.3327 29.1665H30.595C31.2575 29.1665 31.8741 28.7124 31.9825 28.0582C32.1199 27.225 31.4783 26.5 30.6659 26.5H23.9996C22.8746 26.5 21.7872 26.8875 20.9122 27.5958L18.9748 29.1665H16.6666C16.3 29.1665 16 29.4665 16 29.8331V33.8329C16 34.1996 16.3 34.4996 16.6666 34.4996H31.5325C32.1366 34.4996 32.7241 34.2954 33.199 33.9163L39.4987 28.8749C40.132 28.3707 40.182 27.4041 39.5529 26.8375Z" fill="#1D1D1D"/>
</svg>
