<svg width="27" height="33" viewBox="0 0 27 33" fill="none" xmlns="http://www.w3.org/2000/svg">
<path d="M13.7268 28.8437C16.3539 28.0312 18.5476 26.4268 20.3081 24.0305C22.0685 21.6342 23.0976 18.9594 23.3956 16.0062H13.7268V3.20937L3.97681 6.86562V15.275C3.97681 15.4646 4.00389 15.7083 4.05806 16.0062H13.7268V28.8437ZM13.7268 32.0937C13.5372 32.0937 13.3612 32.0802 13.1987 32.0531C13.0362 32.026 12.8737 31.9854 12.7112 31.9312C9.05493 30.7125 6.14347 28.4581 3.97681 25.168C1.81014 21.8779 0.726807 18.3365 0.726807 14.5437V6.86562C0.726807 6.18854 0.923431 5.57917 1.31668 5.0375C1.70993 4.49583 2.21747 4.10312 2.83931 3.85937L12.5893 0.203125C12.9685 0.0677083 13.3476 0 13.7268 0C14.106 0 14.4851 0.0677083 14.8643 0.203125L24.6143 3.85937C25.2372 4.10312 25.7453 4.49583 26.1386 5.0375C26.5318 5.57917 26.7279 6.18854 26.7268 6.86562V14.5437C26.7268 18.3354 25.6435 21.8768 23.4768 25.168C21.3101 28.4592 18.3987 30.7136 14.7424 31.9312C14.5799 31.9854 14.4174 32.026 14.2549 32.0531C14.0924 32.0802 13.9164 32.0937 13.7268 32.0937Z" fill="#E8A000"/>
</svg>
