<svg width="56" height="48" viewBox="0 0 56 48" fill="none" xmlns="http://www.w3.org/2000/svg">
<path fill-rule="evenodd" clip-rule="evenodd" d="M31.4185 3.78665C38.67 4.51831 47.0074 2.43403 51.7743 8.01401C56.664 13.7378 55.498 22.2624 53.4092 29.5282C51.4952 36.1856 47.302 41.8565 41.1617 44.9283C34.9388 48.0414 27.9081 47.9363 21.3786 45.5521C13.691 42.7451 5.98025 38.7221 3.03298 31.0058C-0.437348 21.92 -1.73832 10.0186 5.24779 3.31958C11.9121 -3.07085 22.2843 2.86503 31.4185 3.78665Z" fill="white"/>
<g clip-path="url(#clip0_141_3985)">
<path d="M27 14C25.6739 14 24.4021 14.5268 23.4645 15.4645C22.5268 16.4021 22 17.6739 22 19C22 20.3261 22.5268 21.5979 23.4645 22.5355C24.4021 23.4732 25.6739 24 27 24C28.3261 24 29.5979 23.4732 30.5355 22.5355C31.4732 21.5979 32 20.3261 32 19C32 17.6739 31.4732 16.4021 30.5355 15.4645C29.5979 14.5268 28.3261 14 27 14ZM27 25C24.605 25 22.425 25.694 20.822 26.672C20.022 27.16 19.338 27.736 18.844 28.362C18.358 28.976 18 29.713 18 30.5C18 31.345 18.411 32.011 19.003 32.486C19.563 32.936 20.302 33.234 21.087 33.442C22.665 33.859 24.771 34 27 34L27.685 33.995C27.8525 33.9927 28.0167 33.9484 28.1626 33.8661C28.3085 33.7838 28.4313 33.6662 28.5199 33.524C28.6085 33.3819 28.66 33.2198 28.6696 33.0525C28.6792 32.8853 28.6467 32.7184 28.575 32.567C28.1958 31.7644 27.9994 30.8877 28 30C28 28.748 28.383 27.588 29.037 26.627C29.1342 26.4842 29.1928 26.3186 29.207 26.1465C29.2212 25.9743 29.1905 25.8014 29.118 25.6446C29.0455 25.4878 28.9336 25.3524 28.7932 25.2517C28.6528 25.151 28.4888 25.0884 28.317 25.07C27.8863 25.0233 27.4473 25 27 25ZM34.316 26.051C34.1109 25.9827 33.8891 25.9827 33.684 26.051L30.684 27.051C30.4848 27.1173 30.3115 27.2447 30.1888 27.415C30.066 27.5854 29.9999 27.79 30 28V29.671C29.9999 30.7406 30.3942 31.7727 31.1075 32.5698C31.8207 33.3668 32.8029 33.8729 33.866 33.991C33.956 34.001 34.0453 34.001 34.134 33.991C35.1971 33.8729 36.1793 33.3668 36.8925 32.5698C37.6058 31.7727 38.0001 30.7406 38 29.671V28C38.0001 27.79 37.934 27.5854 37.8112 27.415C37.6885 27.2447 37.5152 27.1173 37.316 27.051L34.316 26.051Z" fill="#1D1D1D"/>
</g>
<defs>
<clipPath id="clip0_141_3985">
<rect width="24" height="24" fill="white" transform="translate(16 12)"/>
</clipPath>
</defs>
</svg>
