<svg width="24" height="25" viewBox="0 0 24 25" fill="none" xmlns="http://www.w3.org/2000/svg">
<path d="M12 14.5V16.5C10.4087 16.5 8.88258 17.1321 7.75736 18.2574C6.63214 19.3826 6 20.9087 6 22.5H4C4 20.3783 4.84285 18.3434 6.34315 16.8431C7.84344 15.3429 9.87827 14.5 12 14.5ZM12 13.5C8.685 13.5 6 10.815 6 7.5C6 4.185 8.685 1.5 12 1.5C15.315 1.5 18 4.185 18 7.5C18 10.815 15.315 13.5 12 13.5ZM12 11.5C14.21 11.5 16 9.71 16 7.5C16 5.29 14.21 3.5 12 3.5C9.79 3.5 8 5.29 8 7.5C8 9.71 9.79 11.5 12 11.5ZM14.595 19.311C14.468 18.7778 14.468 18.2222 14.595 17.689L13.603 17.116L14.603 15.384L15.595 15.957C15.9933 15.58 16.4745 15.3019 17 15.145V14H19V15.145C19.532 15.303 20.012 15.585 20.405 15.957L21.397 15.384L22.397 17.116L21.406 17.689C21.533 18.2222 21.533 18.7778 21.406 19.311L22.397 19.884L21.397 21.616L20.405 21.043C20.0067 21.42 19.5255 21.6981 19 21.855V23H17V21.855C16.4745 21.6981 15.9933 21.42 15.595 21.043L14.603 21.616L13.603 19.884L14.595 19.311ZM18 20C18.3978 20 18.7794 19.842 19.0607 19.5607C19.342 19.2794 19.5 18.8978 19.5 18.5C19.5 18.1022 19.342 17.7206 19.0607 17.4393C18.7794 17.158 18.3978 17 18 17C17.6022 17 17.2206 17.158 16.9393 17.4393C16.658 17.7206 16.5 18.1022 16.5 18.5C16.5 18.8978 16.658 19.2794 16.9393 19.5607C17.2206 19.842 17.6022 20 18 20Z" fill="#A4A4A4"/>
</svg>
