<svg width="33" height="33" viewBox="0 0 33 33" fill="none" xmlns="http://www.w3.org/2000/svg">
<path d="M29.8177 10.2747C30.5893 10.2747 31.3292 10.5812 31.8748 11.1268C32.4203 11.6723 32.7268 12.4123 32.7268 13.1838V19.002C32.7268 19.7735 32.4203 20.5135 31.8748 21.059C31.3292 21.6046 30.5893 21.9111 29.8177 21.9111H28.273C27.9187 24.7233 26.5501 27.3095 24.4242 29.1842C22.2983 31.0589 19.5612 32.0932 16.7268 32.0929V29.1838C19.0414 29.1838 21.2612 28.2644 22.8979 26.6277C24.5346 24.991 25.4541 22.7712 25.4541 20.4566V11.7293C25.4541 9.41466 24.5346 7.19485 22.8979 5.55817C21.2612 3.92149 19.0414 3.00201 16.7268 3.00201C14.4122 3.00201 12.1924 3.92149 10.5557 5.55817C8.91901 7.19485 7.99953 9.41466 7.99953 11.7293V21.9111H3.6359C2.86436 21.9111 2.12442 21.6046 1.57886 21.059C1.0333 20.5135 0.726807 19.7735 0.726807 19.002V13.1838C0.726807 12.4123 1.0333 11.6723 1.57886 11.1268C2.12442 10.5812 2.86436 10.2747 3.6359 10.2747H5.18062C5.53558 7.46295 6.90438 4.87731 9.03019 3.00299C11.156 1.12867 13.8927 0.0944824 16.7268 0.0944824C19.5609 0.0944824 22.2976 1.12867 24.4234 3.00299C26.5492 4.87731 27.918 7.46295 28.273 10.2747H29.8177ZM10.5595 21.5984L12.1014 19.1315C13.4876 20 15.091 20.4594 16.7268 20.4566C18.3627 20.4594 19.966 20 21.3523 19.1315L22.8941 21.5984C21.0458 22.7566 18.908 23.3692 16.7268 23.3656C14.5456 23.3692 12.4078 22.7566 10.5595 21.5984Z" fill="#E8A000"/>
</svg>
