<svg width="20" height="36" viewBox="0 0 20 36" fill="none" xmlns="http://www.w3.org/2000/svg">
<path d="M10.6332 15.8015C6.3113 14.6782 4.92143 13.5168 4.92143 11.708C4.92143 9.63277 6.84439 8.18579 10.062 8.18579C13.451 8.18579 14.7076 9.80413 14.8218 12.184H19.0295C18.8962 8.90928 16.8971 5.90109 12.9179 4.93009V0.760498H7.20614V4.87297C3.51253 5.67262 0.542413 8.07156 0.542413 11.7461C0.542413 16.1442 4.1789 18.3337 9.49084 19.6093C14.2506 20.7517 15.2026 22.4271 15.2026 24.1978C15.2026 25.5115 14.2697 27.6058 10.062 27.6058C6.13994 27.6058 4.59777 25.8542 4.38833 23.6076H0.199707C0.428178 27.7771 3.55061 30.119 7.20614 30.8996V35.0311H12.9179V30.9377C16.6305 30.2332 19.5816 28.0818 19.5816 24.1787C19.5816 18.7716 14.9551 16.9248 10.6332 15.8015Z" fill="#FFAA00"/>
</svg>
