<svg width="15" height="16" viewBox="0 0 15 16" fill="none" xmlns="http://www.w3.org/2000/svg">
<path d="M7.5 0.5C3.36 0.5 0 3.86 0 8C0 12.14 3.36 15.5 7.5 15.5C11.64 15.5 15 12.14 15 8C15 3.86 11.64 0.5 7.5 0.5ZM7.5 14C4.1925 14 1.5 11.3075 1.5 8C1.5 4.6925 4.1925 2 7.5 2C10.8075 2 13.5 4.6925 13.5 8C13.5 11.3075 10.8075 14 7.5 14ZM11.4731 5.21938C11.1804 4.92456 10.7038 4.92371 10.41 5.2175L6.70574 8.92176C6.31575 9.31175 5.68364 9.31236 5.2929 8.92313L4.58676 8.21971C4.29429 7.92838 3.82116 7.92883 3.52926 8.22074C3.23696 8.51304 3.23696 8.98696 3.52926 9.27926L5.29289 11.0429C5.68342 11.4334 6.31658 11.4334 6.70711 11.0429L11.4712 6.27875C11.7636 5.98643 11.7644 5.51274 11.4731 5.21938Z" fill="#2DC937"/>
</svg>
