<svg width="29" height="25" viewBox="0 0 29 25" fill="none" xmlns="http://www.w3.org/2000/svg">
<path d="M4.69556 3.49995H24.6956C24.9292 3.49989 25.1626 3.51471 25.3943 3.54433C25.3158 2.99294 25.1264 2.46316 24.8375 1.98695C24.5487 1.51073 24.1664 1.09794 23.7137 0.773457C23.2611 0.448974 22.7474 0.219524 22.2036 0.0989385C21.6599 -0.0216466 21.0973 -0.0308684 20.5499 0.0718289L4.10181 2.87995H4.08306C3.0506 3.07739 2.13247 3.66153 1.51618 4.51308C2.44468 3.85266 3.55614 3.49848 4.69556 3.49995ZM24.6956 4.99995H4.69556C3.63505 5.00111 2.6183 5.42291 1.86841 6.17281C1.11851 6.9227 0.696715 7.93944 0.695557 8.99995V21C0.696715 22.0605 1.11851 23.0772 1.86841 23.8271C2.6183 24.577 3.63505 24.9988 4.69556 25H24.6956C25.7561 24.9988 26.7728 24.577 27.5227 23.8271C28.2726 23.0772 28.6944 22.0605 28.6956 21V8.99995C28.6944 7.93944 28.2726 6.9227 27.5227 6.17281C26.7728 5.42291 25.7561 5.00111 24.6956 4.99995ZM21.7268 17C21.3312 17 20.9446 16.8827 20.6157 16.6629C20.2868 16.4431 20.0304 16.1308 19.879 15.7653C19.7277 15.3999 19.6881 14.9977 19.7652 14.6098C19.8424 14.2218 20.0329 13.8654 20.3126 13.5857C20.5923 13.306 20.9487 13.1156 21.3366 13.0384C21.7246 12.9612 22.1267 13.0008 22.4922 13.1522C22.8576 13.3036 23.17 13.5599 23.3897 13.8888C23.6095 14.2177 23.7268 14.6044 23.7268 15C23.7268 15.5304 23.5161 16.0391 23.141 16.4142C22.7659 16.7892 22.2572 17 21.7268 17Z" fill="#E8A000"/>
</svg>
