<svg width="33" height="22" viewBox="0 0 33 22" fill="none" xmlns="http://www.w3.org/2000/svg">
<path d="M22.6077 17.5636H28.6237V11.5476H27.0521V15.992H22.6077V17.5636ZM16.7268 15.24C17.8883 15.24 18.8856 14.824 19.7188 13.992C20.5508 13.16 20.9668 12.1627 20.9668 11C20.9668 9.83737 20.5508 8.84004 19.7188 8.00804C18.8868 7.17604 17.8895 6.76004 16.7268 6.76004C15.5641 6.76004 14.5668 7.17604 13.7348 8.00804C12.9028 8.84004 12.4868 9.83737 12.4868 11C12.4868 12.1627 12.9028 13.16 13.7348 13.992C14.5668 14.824 15.5641 15.24 16.7268 15.24ZM4.82992 10.4525H6.40147V6.00804H10.8459V4.43648H4.82992V10.4525ZM0.726807 21.6667V0.333374H32.7268V21.6667H0.726807Z" fill="#E8A000"/>
</svg>
